<svg xmlns="http://www.w3.org/2000/svg" xmlns:xlink="http://www.w3.org/1999/xlink" width="149" zoomAndPan="magnify" viewBox="0 0 111.75 37.5" height="50" preserveAspectRatio="xMidYMid meet" version="1.0"><defs><g/><clipPath id="76aad65e47"><path d="M 0.613281 0 L 110.890625 0 L 110.890625 37.007812 L 0.613281 37.007812 Z M 0.613281 0 " clip-rule="nonzero"/></clipPath><clipPath id="beeaf73934"><path d="M 41 29 L 110.890625 29 L 110.890625 31 L 41 31 Z M 41 29 " clip-rule="nonzero"/></clipPath></defs><g clip-path="url(#76aad65e47)"><path fill="#ffffff" d="M 0.613281 0 L 111.136719 0 L 111.136719 43.765625 L 0.613281 43.765625 Z M 0.613281 0 " fill-opacity="1" fill-rule="nonzero"/><path fill="#ffffff" d="M 0.613281 0 L 111.136719 0 L 111.136719 37.089844 L 0.613281 37.089844 Z M 0.613281 0 " fill-opacity="1" fill-rule="nonzero"/><path fill="#ffffff" d="M 0.613281 0 L 111.136719 0 L 111.136719 37.089844 L 0.613281 37.089844 Z M 0.613281 0 " fill-opacity="1" fill-rule="nonzero"/></g><g fill="#e8465f" fill-opacity="1"><g transform="translate(2.022549, 24.697553)"><g><path d="M 7.015625 0.125 C 4.847656 0.125 3.191406 -0.566406 2.046875 -1.953125 C 1.117188 -3.078125 0.65625 -4.46875 0.65625 -6.125 L 0.65625 -6.21875 C 0.65625 -7.882812 1.117188 -9.285156 2.046875 -10.421875 C 3.179688 -11.785156 4.835938 -12.46875 7.015625 -12.46875 C 8.640625 -12.46875 9.984375 -12.097656 11.046875 -11.359375 C 12.109375 -10.628906 12.742188 -9.65625 12.953125 -8.4375 L 10.015625 -8.4375 C 9.953125 -9.0625 9.648438 -9.535156 9.109375 -9.859375 C 8.578125 -10.191406 7.878906 -10.359375 7.015625 -10.359375 C 5.921875 -10.359375 5.054688 -9.96875 4.421875 -9.1875 C 3.785156 -8.40625 3.46875 -7.382812 3.46875 -6.125 C 3.46875 -4.882812 3.785156 -3.882812 4.421875 -3.125 C 5.066406 -2.363281 5.929688 -1.984375 7.015625 -1.984375 C 7.878906 -1.984375 8.578125 -2.144531 9.109375 -2.46875 C 9.648438 -2.800781 9.953125 -3.28125 10.015625 -3.90625 L 12.953125 -3.90625 C 12.742188 -2.695312 12.101562 -1.722656 11.03125 -0.984375 C 9.96875 -0.242188 8.628906 0.125 7.015625 0.125 Z M 7.015625 0.125 "/></g></g></g><g fill="#e8465f" fill-opacity="1"><g transform="translate(17.190608, 24.697553)"><g><path d="M 3.6875 0.125 C 2.84375 0.125 2.109375 -0.101562 1.484375 -0.5625 C 0.867188 -1.019531 0.5625 -1.691406 0.5625 -2.578125 C 0.5625 -3.203125 0.765625 -3.726562 1.171875 -4.15625 C 1.578125 -4.582031 2.140625 -4.882812 2.859375 -5.0625 C 3.585938 -5.238281 4.273438 -5.359375 4.921875 -5.421875 C 5.578125 -5.484375 6.328125 -5.515625 7.171875 -5.515625 C 7.171875 -6.085938 7.015625 -6.488281 6.703125 -6.71875 C 6.398438 -6.957031 5.972656 -7.078125 5.421875 -7.078125 C 4.273438 -7.078125 3.679688 -6.773438 3.640625 -6.171875 L 1.09375 -6.171875 C 1.394531 -8.117188 2.796875 -9.09375 5.296875 -9.09375 C 7.003906 -9.09375 8.210938 -8.75 8.921875 -8.0625 C 9.640625 -7.382812 10 -6.320312 10 -4.875 L 10 0 L 7.359375 0 L 7.171875 -0.984375 C 6.585938 -0.242188 5.425781 0.125 3.6875 0.125 Z M 5.1875 -1.90625 C 5.425781 -1.90625 5.753906 -1.972656 6.171875 -2.109375 C 6.585938 -2.253906 6.921875 -2.429688 7.171875 -2.640625 L 7.171875 -3.8125 C 6.253906 -3.8125 5.390625 -3.722656 4.578125 -3.546875 C 3.773438 -3.367188 3.375 -3.078125 3.375 -2.671875 C 3.375 -2.160156 3.976562 -1.90625 5.1875 -1.90625 Z M 5.1875 -1.90625 "/></g></g></g><g fill="#e8465f" fill-opacity="1"><g transform="translate(29.513467, 24.697553)"><g><path d="M 1.0625 0 L 1.0625 -8.890625 L 3.84375 -8.890625 L 3.96875 -7.984375 C 4.40625 -8.722656 5.367188 -9.09375 6.859375 -9.09375 C 7.335938 -9.09375 7.707031 -9.039062 7.96875 -8.9375 L 7.96875 -6.796875 C 7.519531 -6.910156 7.113281 -6.96875 6.75 -6.96875 C 6.019531 -6.96875 5.359375 -6.769531 4.765625 -6.375 C 4.179688 -5.988281 3.890625 -5.488281 3.890625 -4.875 L 3.890625 0 Z M 1.0625 0 "/></g></g></g><g fill="#000000" fill-opacity="1"><g transform="translate(39.378493, 24.697553)"><g><path d="M 6.921875 -2.34375 C 7.765625 -2.34375 8.425781 -2.5 8.90625 -2.8125 C 9.382812 -3.125 9.625 -3.585938 9.625 -4.203125 L 12.90625 -4.203125 C 12.707031 -2.890625 12.078125 -1.835938 11.015625 -1.046875 C 9.960938 -0.265625 8.597656 0.125 6.921875 0.125 C 4.785156 0.125 3.132812 -0.578125 1.96875 -1.984375 C 1.03125 -3.117188 0.5625 -4.457031 0.5625 -6 C 0.5625 -7.664062 1.03125 -9.085938 1.96875 -10.265625 C 3.132812 -11.734375 4.785156 -12.46875 6.921875 -12.46875 C 8.597656 -12.46875 9.960938 -12.070312 11.015625 -11.28125 C 12.078125 -10.5 12.707031 -9.453125 12.90625 -8.140625 L 9.625 -8.140625 C 9.625 -8.753906 9.390625 -9.21875 8.921875 -9.53125 C 8.453125 -9.84375 7.816406 -10 7.015625 -10 C 6.066406 -10 5.289062 -9.617188 4.6875 -8.859375 C 4.082031 -8.097656 3.78125 -7.144531 3.78125 -6 C 3.78125 -4.90625 4.066406 -4.019531 4.640625 -3.34375 C 5.210938 -2.675781 5.972656 -2.34375 6.921875 -2.34375 Z M 6.921875 -2.34375 "/></g></g></g><g fill="#000000" fill-opacity="1"><g transform="translate(54.421027, 24.697553)"><g><path d="M 4.203125 0 L 0.984375 0 L 0.984375 -12.234375 L 4.203125 -12.234375 L 4.203125 -7.15625 L 8.640625 -7.15625 L 8.640625 -12.234375 L 11.859375 -12.234375 L 11.859375 0 L 8.640625 0 L 8.640625 -4.625 L 4.203125 -4.625 Z M 4.203125 0 "/></g></g></g><g fill="#000000" fill-opacity="1"><g transform="translate(68.835946, 24.697553)"><g><path d="M 0.984375 -12.234375 L 10.203125 -12.234375 L 10.203125 -9.765625 L 4.203125 -9.765625 L 4.203125 -7.328125 L 8.765625 -7.328125 L 8.765625 -4.8125 L 4.203125 -4.8125 L 4.203125 -2.46875 L 10.203125 -2.46875 L 10.203125 0 L 0.984375 0 Z M 0.984375 -12.234375 "/></g></g></g><g fill="#000000" fill-opacity="1"><g transform="translate(81.284331, 24.697553)"><g><path d="M 6.921875 -2.34375 C 7.765625 -2.34375 8.425781 -2.5 8.90625 -2.8125 C 9.382812 -3.125 9.625 -3.585938 9.625 -4.203125 L 12.90625 -4.203125 C 12.707031 -2.890625 12.078125 -1.835938 11.015625 -1.046875 C 9.960938 -0.265625 8.597656 0.125 6.921875 0.125 C 4.785156 0.125 3.132812 -0.578125 1.96875 -1.984375 C 1.03125 -3.117188 0.5625 -4.457031 0.5625 -6 C 0.5625 -7.664062 1.03125 -9.085938 1.96875 -10.265625 C 3.132812 -11.734375 4.785156 -12.46875 6.921875 -12.46875 C 8.597656 -12.46875 9.960938 -12.070312 11.015625 -11.28125 C 12.078125 -10.5 12.707031 -9.453125 12.90625 -8.140625 L 9.625 -8.140625 C 9.625 -8.753906 9.390625 -9.21875 8.921875 -9.53125 C 8.453125 -9.84375 7.816406 -10 7.015625 -10 C 6.066406 -10 5.289062 -9.617188 4.6875 -8.859375 C 4.082031 -8.097656 3.78125 -7.144531 3.78125 -6 C 3.78125 -4.90625 4.066406 -4.019531 4.640625 -3.34375 C 5.210938 -2.675781 5.972656 -2.34375 6.921875 -2.34375 Z M 6.921875 -2.34375 "/></g></g></g><g fill="#000000" fill-opacity="1"><g transform="translate(96.326864, 24.697553)"><g><path d="M 6.53125 -5.6875 L 4.203125 -3.328125 L 4.203125 0 L 0.984375 0 L 0.984375 -12.234375 L 4.203125 -12.234375 L 4.203125 -7.546875 L 8.75 -12.234375 L 12.796875 -12.234375 L 8.90625 -8.140625 C 11.3125 -3.660156 12.765625 -0.945312 13.265625 0 L 9.625 0 Z M 6.53125 -5.6875 "/></g></g></g><g clip-path="url(#beeaf73934)"><path stroke-linecap="butt" transform="matrix(0.743465, -0.000000000000000059, 0.000000000000000059, 0.741787, 42.668537, 29.366847)" fill="none" stroke-linejoin="miter" d="M -0.000764589 1.000999 L 89.802529 1.000999 " stroke="#e8465f" stroke-width="2" stroke-opacity="1" stroke-miterlimit="4"/></g></svg>