<svg xmlns="http://www.w3.org/2000/svg" xmlns:xlink="http://www.w3.org/1999/xlink" width="80" zoomAndPan="magnify" viewBox="0 0 60 60" height="80" preserveAspectRatio="xMidYMid meet" version="1.0"><defs><clipPath id="33e5b3ef87"><path d="M 3 0 L 56.960938 0 L 56.960938 60 L 3 60 Z M 3 0 " clip-rule="nonzero"/></clipPath></defs><rect x="-6" width="72" fill="#ffffff" y="-6" height="72" fill-opacity="1"/><rect x="-6" width="72" fill="#ffffff" y="-6" height="72" fill-opacity="1"/><g clip-path="url(#33e5b3ef87)"><path fill="#6a994e" d="M 49.042969 55.761719 L 46.914062 55.226562 L 46.914062 7.089844 C 46.914062 6.539062 46.464844 6.089844 45.914062 6.089844 L 14.1875 6.089844 L 14.839844 2.183594 L 54.78125 5.988281 Z M 44.917969 58.003906 L 5.035156 58.003906 L 5.035156 8.085938 L 44.917969 8.085938 Z M 14.101562 0.105469 C 13.574219 0.0429688 13.109375 0.417969 13.027344 0.933594 L 12.167969 6.089844 L 4.039062 6.089844 C 3.492188 6.089844 3.042969 6.539062 3.042969 7.089844 L 3.042969 59 C 3.042969 59.550781 3.492188 60 4.039062 60 L 45.914062 60 C 46.464844 60 46.914062 59.550781 46.914062 59 L 46.914062 57.285156 L 49.660156 57.972656 C 49.742188 57.992188 49.820312 58.003906 49.902344 58.003906 C 50.105469 58.003906 50.304688 57.941406 50.472656 57.828125 C 50.707031 57.660156 50.863281 57.402344 50.890625 57.117188 L 56.875 5.203125 C 56.90625 4.9375 56.828125 4.675781 56.660156 4.464844 C 56.492188 4.253906 56.246094 4.125 55.980469 4.097656 L 14.101562 0.105469 " fill-opacity="1" fill-rule="nonzero"/></g><path fill="#6a994e" d="M 9.023438 16.074219 L 7.03125 16.074219 L 7.03125 32.046875 L 42.925781 32.046875 L 42.925781 30.050781 L 9.023438 30.050781 L 9.023438 16.074219 " fill-opacity="1" fill-rule="nonzero"/><path fill="#6a994e" d="M 31.035156 21.90625 L 24.847656 17.785156 L 18.996094 23.648438 L 16.003906 20.652344 L 10.3125 26.347656 L 11.722656 27.761719 L 16.003906 23.476562 L 18.996094 26.46875 L 25.105469 20.351562 L 30.886719 24.214844 L 43.371094 17.964844 L 42.476562 16.179688 L 31.035156 21.90625 " fill-opacity="1" fill-rule="nonzero"/><path fill="#6a994e" d="M 9.023438 14.078125 C 10.121094 14.078125 11.019531 13.179688 11.019531 12.078125 C 11.019531 10.980469 10.121094 10.082031 9.023438 10.082031 C 7.925781 10.082031 7.03125 10.980469 7.03125 12.078125 C 7.03125 13.179688 7.925781 14.078125 9.023438 14.078125 " fill-opacity="1" fill-rule="nonzero"/><path fill="#6a994e" d="M 40.929688 14.078125 C 42.027344 14.078125 42.925781 13.179688 42.925781 12.078125 C 42.925781 10.980469 42.027344 10.082031 40.929688 10.082031 C 39.832031 10.082031 38.9375 10.980469 38.9375 12.078125 C 38.9375 13.179688 39.832031 14.078125 40.929688 14.078125 " fill-opacity="1" fill-rule="nonzero"/><path fill="#6a994e" d="M 9.023438 52.011719 C 7.925781 52.011719 7.03125 52.910156 7.03125 54.011719 C 7.03125 55.109375 7.925781 56.007812 9.023438 56.007812 C 10.121094 56.007812 11.019531 55.109375 11.019531 54.011719 C 11.019531 52.910156 10.121094 52.011719 9.023438 52.011719 " fill-opacity="1" fill-rule="nonzero"/><path fill="#6a994e" d="M 40.929688 52.011719 C 39.832031 52.011719 38.9375 52.910156 38.9375 54.011719 C 38.9375 55.109375 39.832031 56.007812 40.929688 56.007812 C 42.027344 56.007812 42.925781 55.109375 42.925781 54.011719 C 42.925781 52.910156 42.027344 52.011719 40.929688 52.011719 " fill-opacity="1" fill-rule="nonzero"/><path fill="#6a994e" d="M 7.03125 36.039062 L 18.996094 36.039062 L 18.996094 34.042969 L 7.03125 34.042969 L 7.03125 36.039062 " fill-opacity="1" fill-rule="nonzero"/><path fill="#6a994e" d="M 24.976562 56.007812 L 36.941406 56.007812 L 36.941406 54.011719 L 24.976562 54.011719 L 24.976562 56.007812 " fill-opacity="1" fill-rule="nonzero"/><path fill="#6a994e" d="M 7.03125 40.035156 L 18.996094 40.035156 L 18.996094 38.035156 L 7.03125 38.035156 L 7.03125 40.035156 " fill-opacity="1" fill-rule="nonzero"/><path fill="#6a994e" d="M 7.03125 44.027344 L 18.996094 44.027344 L 18.996094 42.03125 L 7.03125 42.03125 L 7.03125 44.027344 " fill-opacity="1" fill-rule="nonzero"/><path fill="#6a994e" d="M 9.023438 46.023438 L 7.03125 46.023438 L 7.03125 48.019531 L 9.023438 48.019531 L 9.023438 46.023438 " fill-opacity="1" fill-rule="nonzero"/><path fill="#6a994e" d="M 11.019531 48.019531 L 13.011719 48.019531 L 13.011719 46.023438 L 11.019531 46.023438 L 11.019531 48.019531 " fill-opacity="1" fill-rule="nonzero"/><path fill="#6a994e" d="M 17 46.023438 L 15.007812 46.023438 L 15.007812 48.019531 L 17 48.019531 L 17 46.023438 " fill-opacity="1" fill-rule="nonzero"/><path fill="#6a994e" d="M 22.984375 43.027344 C 22.984375 39.515625 25.589844 36.597656 28.964844 36.109375 L 28.964844 44.027344 L 36.871094 44.027344 C 36.386719 47.40625 33.472656 50.015625 29.960938 50.015625 C 26.113281 50.015625 22.984375 46.882812 22.984375 43.027344 Z M 38.9375 43.027344 L 38.9375 42.03125 L 30.960938 42.03125 L 30.960938 34.042969 L 29.960938 34.042969 C 25.011719 34.042969 20.988281 38.070312 20.988281 43.027344 C 20.988281 47.984375 25.011719 52.011719 29.960938 52.011719 C 34.914062 52.011719 38.9375 47.984375 38.9375 43.027344 " fill-opacity="1" fill-rule="nonzero"/><path fill="#6a994e" d="M 32.027344 39.664062 L 33.878906 40.402344 L 35.621094 36.039062 L 42.925781 36.039062 L 42.925781 34.042969 L 34.273438 34.042969 L 32.027344 39.664062 " fill-opacity="1" fill-rule="nonzero"/><path fill="#6a994e" d="M 20.988281 56.007812 L 22.984375 56.007812 L 22.984375 54.011719 L 20.988281 54.011719 L 20.988281 56.007812 " fill-opacity="1" fill-rule="nonzero"/><path fill="#6a994e" d="M 17 56.007812 L 18.996094 56.007812 L 18.996094 54.011719 L 17 54.011719 L 17 56.007812 " fill-opacity="1" fill-rule="nonzero"/></svg>