<svg xmlns="http://www.w3.org/2000/svg" xmlns:xlink="http://www.w3.org/1999/xlink" width="80" zoomAndPan="magnify" viewBox="0 0 60 60" height="80" preserveAspectRatio="xMidYMid meet" version="1.0"><defs><clipPath id="40eddf2892"><path d="M 7.199219 5 L 52.949219 5 L 52.949219 60 L 7.199219 60 Z M 7.199219 5 " clip-rule="nonzero"/></clipPath></defs><rect x="-6" width="72" fill="#ffffff" y="-6" height="72" fill-opacity="1"/><rect x="-6" width="72" fill="#ffffff" y="-6" height="72" fill-opacity="1"/><rect x="-6" width="72" fill="#ffffff" y="-6" height="72" fill-opacity="1"/><g clip-path="url(#40eddf2892)"><path fill="#6a994e" d="M 49.277344 59.820312 L 10.875 59.820312 C 10.382812 59.816406 9.914062 59.722656 9.460938 59.539062 C 9.011719 59.351562 8.613281 59.085938 8.265625 58.742188 C 7.921875 58.394531 7.652344 58 7.46875 57.550781 C 7.28125 57.097656 7.1875 56.628906 7.183594 56.144531 L 7.183594 9.242188 C 7.1875 8.753906 7.28125 8.285156 7.46875 7.835938 C 7.65625 7.382812 7.921875 6.988281 8.265625 6.644531 C 8.613281 6.296875 9.011719 6.03125 9.460938 5.847656 C 9.914062 5.660156 10.382812 5.566406 10.875 5.566406 L 21.714844 5.566406 C 21.886719 5.566406 22.03125 5.625 22.152344 5.746094 C 22.277344 5.867188 22.335938 6.015625 22.335938 6.1875 L 22.335938 8.242188 C 22.335938 8.355469 22.375 8.453125 22.457031 8.53125 C 22.535156 8.609375 22.632812 8.652344 22.746094 8.652344 L 37.40625 8.652344 C 37.515625 8.648438 37.613281 8.609375 37.691406 8.53125 C 37.769531 8.449219 37.8125 8.355469 37.8125 8.242188 L 37.8125 6.183594 C 37.8125 6.015625 37.875 5.867188 37.996094 5.746094 C 38.117188 5.625 38.265625 5.5625 38.4375 5.5625 L 49.277344 5.5625 C 49.765625 5.566406 50.234375 5.660156 50.6875 5.84375 C 51.140625 6.03125 51.539062 6.296875 51.882812 6.640625 C 52.230469 6.988281 52.496094 7.382812 52.683594 7.835938 C 52.871094 8.285156 52.964844 8.753906 52.964844 9.238281 L 52.964844 56.140625 C 52.964844 56.628906 52.871094 57.097656 52.683594 57.546875 C 52.496094 58 52.230469 58.394531 51.882812 58.742188 C 51.539062 59.085938 51.140625 59.351562 50.6875 59.539062 C 50.234375 59.722656 49.765625 59.816406 49.277344 59.820312 Z M 10.875 6.808594 C 10.550781 6.808594 10.238281 6.867188 9.9375 6.992188 C 9.640625 7.117188 9.375 7.292969 9.148438 7.519531 C 8.917969 7.75 8.742188 8.011719 8.617188 8.308594 C 8.496094 8.605469 8.433594 8.917969 8.429688 9.238281 L 8.429688 56.140625 C 8.433594 56.464844 8.492188 56.773438 8.617188 57.074219 C 8.742188 57.371094 8.917969 57.632812 9.148438 57.863281 C 9.375 58.089844 9.640625 58.265625 9.9375 58.390625 C 10.238281 58.515625 10.550781 58.574219 10.875 58.578125 L 49.277344 58.578125 C 49.601562 58.574219 49.910156 58.515625 50.210938 58.390625 C 50.511719 58.265625 50.773438 58.089844 51.003906 57.863281 C 51.230469 57.632812 51.40625 57.371094 51.53125 57.074219 C 51.65625 56.777344 51.71875 56.464844 51.71875 56.144531 L 51.71875 9.242188 C 51.71875 8.917969 51.65625 8.609375 51.53125 8.308594 C 51.40625 8.011719 51.230469 7.75 51.003906 7.519531 C 50.773438 7.292969 50.511719 7.117188 50.210938 6.992188 C 49.910156 6.871094 49.601562 6.808594 49.277344 6.808594 L 39.058594 6.808594 L 39.058594 8.242188 C 39.058594 8.460938 39.015625 8.671875 38.933594 8.875 C 38.847656 9.078125 38.730469 9.253906 38.574219 9.410156 C 38.417969 9.5625 38.242188 9.683594 38.039062 9.765625 C 37.835938 9.851562 37.625 9.894531 37.40625 9.894531 L 22.746094 9.894531 C 22.527344 9.894531 22.316406 9.851562 22.113281 9.765625 C 21.910156 9.683594 21.730469 9.5625 21.574219 9.410156 C 21.421875 9.253906 21.300781 9.078125 21.21875 8.875 C 21.132812 8.671875 21.089844 8.460938 21.089844 8.242188 L 21.089844 6.808594 Z M 10.875 6.808594 " fill-opacity="1" fill-rule="nonzero"/></g><path fill="#6a994e" d="M 37.40625 9.894531 L 22.746094 9.894531 C 22.527344 9.894531 22.316406 9.851562 22.113281 9.765625 C 21.910156 9.683594 21.730469 9.5625 21.574219 9.410156 C 21.421875 9.253906 21.300781 9.074219 21.21875 8.875 C 21.132812 8.671875 21.089844 8.460938 21.089844 8.242188 L 21.089844 4.121094 C 21.089844 3.902344 21.132812 3.691406 21.21875 3.492188 C 21.300781 3.289062 21.421875 3.109375 21.574219 2.957031 C 21.730469 2.800781 21.910156 2.683594 22.113281 2.597656 C 22.316406 2.515625 22.527344 2.472656 22.746094 2.472656 L 27.191406 2.472656 C 27.265625 2.148438 27.394531 1.84375 27.570312 1.558594 C 27.75 1.277344 27.96875 1.03125 28.230469 0.824219 C 28.492188 0.617188 28.78125 0.457031 29.097656 0.347656 C 29.414062 0.234375 29.742188 0.179688 30.074219 0.179688 C 30.410156 0.179688 30.734375 0.234375 31.050781 0.347656 C 31.367188 0.457031 31.65625 0.617188 31.917969 0.824219 C 32.179688 1.03125 32.402344 1.277344 32.578125 1.558594 C 32.757812 1.84375 32.882812 2.148438 32.957031 2.472656 L 37.40625 2.472656 C 37.625 2.472656 37.835938 2.515625 38.039062 2.597656 C 38.242188 2.683594 38.417969 2.800781 38.574219 2.957031 C 38.730469 3.109375 38.847656 3.289062 38.933594 3.492188 C 39.015625 3.691406 39.058594 3.902344 39.058594 4.121094 L 39.058594 8.242188 C 39.058594 8.460938 39.015625 8.671875 38.933594 8.875 C 38.847656 9.074219 38.730469 9.253906 38.574219 9.410156 C 38.417969 9.5625 38.242188 9.683594 38.039062 9.765625 C 37.835938 9.851562 37.625 9.894531 37.40625 9.894531 Z M 22.746094 3.714844 C 22.632812 3.714844 22.535156 3.753906 22.457031 3.835938 C 22.375 3.914062 22.335938 4.007812 22.335938 4.121094 L 22.335938 8.242188 C 22.335938 8.355469 22.375 8.453125 22.457031 8.53125 C 22.535156 8.609375 22.632812 8.652344 22.746094 8.652344 L 37.40625 8.652344 C 37.515625 8.648438 37.613281 8.609375 37.691406 8.53125 C 37.769531 8.449219 37.8125 8.355469 37.8125 8.242188 L 37.8125 4.121094 C 37.8125 4.011719 37.769531 3.914062 37.691406 3.835938 C 37.613281 3.757812 37.515625 3.714844 37.40625 3.714844 L 32.410156 3.714844 C 32.238281 3.714844 32.09375 3.65625 31.972656 3.535156 C 31.847656 3.417969 31.789062 3.273438 31.785156 3.101562 C 31.78125 2.878906 31.734375 2.664062 31.644531 2.460938 C 31.558594 2.253906 31.433594 2.074219 31.273438 1.917969 C 31.113281 1.761719 30.929688 1.640625 30.722656 1.558594 C 30.515625 1.472656 30.300781 1.429688 30.074219 1.429688 C 29.851562 1.429688 29.636719 1.472656 29.429688 1.558594 C 29.222656 1.640625 29.039062 1.761719 28.878906 1.917969 C 28.71875 2.074219 28.59375 2.253906 28.503906 2.460938 C 28.417969 2.664062 28.371094 2.878906 28.367188 3.101562 C 28.363281 3.273438 28.300781 3.417969 28.179688 3.535156 C 28.058594 3.65625 27.914062 3.714844 27.742188 3.714844 Z M 22.746094 3.714844 " fill-opacity="1" fill-rule="nonzero"/><path fill="#6a994e" d="M 20.074219 24.273438 L 13.960938 24.273438 C 13.660156 24.273438 13.375 24.21875 13.097656 24.105469 C 12.824219 23.988281 12.578125 23.828125 12.367188 23.617188 C 12.15625 23.40625 11.996094 23.164062 11.882812 22.890625 C 11.765625 22.617188 11.710938 22.332031 11.707031 22.03125 L 11.707031 15.9375 C 11.710938 15.640625 11.765625 15.355469 11.882812 15.082031 C 11.996094 14.804688 12.15625 14.5625 12.367188 14.351562 C 12.578125 14.144531 12.824219 13.980469 13.097656 13.867188 C 13.375 13.753906 13.660156 13.695312 13.960938 13.695312 L 20.074219 13.695312 C 20.371094 13.695312 20.660156 13.753906 20.933594 13.867188 C 21.210938 13.980469 21.453125 14.144531 21.664062 14.351562 C 21.875 14.5625 22.039062 14.804688 22.152344 15.082031 C 22.265625 15.355469 22.324219 15.640625 22.324219 15.9375 L 22.324219 22.03125 C 22.324219 22.332031 22.265625 22.617188 22.152344 22.890625 C 22.039062 23.164062 21.875 23.40625 21.664062 23.617188 C 21.453125 23.828125 21.210938 23.988281 20.933594 24.105469 C 20.660156 24.21875 20.371094 24.273438 20.074219 24.273438 Z M 13.960938 14.9375 C 13.824219 14.9375 13.699219 14.964844 13.574219 15.015625 C 13.453125 15.066406 13.34375 15.136719 13.25 15.230469 C 13.15625 15.324219 13.082031 15.433594 13.03125 15.554688 C 12.980469 15.679688 12.957031 15.804688 12.957031 15.9375 L 12.957031 22.03125 C 12.957031 22.164062 12.980469 22.292969 13.03125 22.414062 C 13.082031 22.539062 13.15625 22.644531 13.25 22.738281 C 13.34375 22.832031 13.453125 22.90625 13.574219 22.957031 C 13.699219 23.007812 13.824219 23.03125 13.960938 23.03125 L 20.074219 23.03125 C 20.207031 23.03125 20.335938 23.007812 20.457031 22.957031 C 20.582031 22.90625 20.6875 22.832031 20.78125 22.738281 C 20.875 22.644531 20.949219 22.539062 21 22.414062 C 21.050781 22.292969 21.078125 22.164062 21.078125 22.03125 L 21.078125 15.9375 C 21.078125 15.804688 21.050781 15.679688 21 15.554688 C 20.949219 15.433594 20.875 15.324219 20.78125 15.230469 C 20.6875 15.136719 20.582031 15.066406 20.457031 15.015625 C 20.335938 14.964844 20.207031 14.9375 20.074219 14.9375 Z M 13.960938 14.9375 " fill-opacity="1" fill-rule="nonzero"/><path fill="#6a994e" d="M 17.808594 21.242188 C 17.632812 21.242188 17.488281 21.179688 17.367188 21.058594 L 15.046875 18.75 C 14.921875 18.628906 14.859375 18.480469 14.859375 18.308594 C 14.855469 18.132812 14.917969 17.984375 15.039062 17.863281 C 15.164062 17.738281 15.3125 17.679688 15.488281 17.679688 C 15.660156 17.683594 15.808594 17.746094 15.929688 17.871094 L 17.808594 19.742188 L 23.628906 13.9375 C 23.75 13.820312 23.898438 13.761719 24.066406 13.765625 C 24.238281 13.765625 24.382812 13.828125 24.503906 13.945312 C 24.621094 14.066406 24.683594 14.210938 24.683594 14.378906 C 24.6875 14.550781 24.628906 14.695312 24.511719 14.816406 L 18.246094 21.054688 C 18.125 21.175781 17.980469 21.238281 17.808594 21.242188 Z M 17.808594 21.242188 " fill-opacity="1" fill-rule="nonzero"/><path fill="#6a994e" d="M 47.816406 15.621094 L 27.664062 15.621094 C 27.492188 15.621094 27.347656 15.558594 27.222656 15.4375 C 27.101562 15.316406 27.042969 15.171875 27.042969 15 C 27.042969 14.828125 27.101562 14.679688 27.222656 14.558594 C 27.347656 14.4375 27.492188 14.378906 27.664062 14.378906 L 47.816406 14.378906 C 47.988281 14.378906 48.136719 14.4375 48.257812 14.558594 C 48.378906 14.679688 48.441406 14.828125 48.441406 15 C 48.441406 15.171875 48.378906 15.316406 48.257812 15.4375 C 48.136719 15.558594 47.988281 15.621094 47.816406 15.621094 Z M 47.816406 15.621094 " fill-opacity="1" fill-rule="nonzero"/><path fill="#6a994e" d="M 47.816406 19.605469 L 27.664062 19.605469 C 27.492188 19.605469 27.347656 19.546875 27.222656 19.425781 C 27.101562 19.304688 27.042969 19.15625 27.042969 18.984375 C 27.042969 18.8125 27.101562 18.667969 27.222656 18.546875 C 27.347656 18.425781 27.492188 18.363281 27.664062 18.363281 L 47.816406 18.363281 C 47.988281 18.363281 48.136719 18.425781 48.257812 18.546875 C 48.378906 18.667969 48.441406 18.8125 48.441406 18.984375 C 48.441406 19.15625 48.378906 19.304688 48.257812 19.425781 C 48.136719 19.546875 47.988281 19.605469 47.816406 19.605469 Z M 47.816406 19.605469 " fill-opacity="1" fill-rule="nonzero"/><path fill="#6a994e" d="M 47.816406 23.59375 L 27.664062 23.59375 C 27.492188 23.59375 27.347656 23.53125 27.222656 23.410156 C 27.101562 23.289062 27.042969 23.144531 27.042969 22.972656 C 27.042969 22.800781 27.101562 22.652344 27.222656 22.53125 C 27.347656 22.410156 27.492188 22.351562 27.664062 22.351562 L 47.816406 22.351562 C 47.988281 22.351562 48.136719 22.410156 48.257812 22.53125 C 48.378906 22.652344 48.441406 22.800781 48.441406 22.972656 C 48.441406 23.144531 48.378906 23.289062 48.257812 23.410156 C 48.136719 23.53125 47.988281 23.59375 47.816406 23.59375 Z M 47.816406 23.59375 " fill-opacity="1" fill-rule="nonzero"/><path fill="#6a994e" d="M 20.074219 39.035156 L 13.960938 39.035156 C 13.660156 39.035156 13.375 38.976562 13.097656 38.863281 C 12.824219 38.75 12.578125 38.589844 12.367188 38.378906 C 12.15625 38.167969 11.996094 37.925781 11.882812 37.652344 C 11.765625 37.375 11.710938 37.089844 11.707031 36.792969 L 11.707031 30.699219 C 11.710938 30.402344 11.765625 30.117188 11.882812 29.839844 C 11.996094 29.566406 12.15625 29.324219 12.367188 29.113281 C 12.578125 28.902344 12.824219 28.742188 13.097656 28.628906 C 13.375 28.515625 13.660156 28.457031 13.960938 28.457031 L 20.074219 28.457031 C 20.371094 28.457031 20.660156 28.515625 20.933594 28.628906 C 21.210938 28.742188 21.453125 28.902344 21.664062 29.113281 C 21.875 29.324219 22.039062 29.566406 22.152344 29.839844 C 22.265625 30.117188 22.324219 30.402344 22.324219 30.699219 L 22.324219 36.792969 C 22.324219 37.089844 22.265625 37.375 22.152344 37.652344 C 22.039062 37.925781 21.875 38.167969 21.664062 38.378906 C 21.453125 38.589844 21.210938 38.75 20.933594 38.863281 C 20.660156 38.976562 20.371094 39.035156 20.074219 39.035156 Z M 13.960938 29.699219 C 13.824219 29.699219 13.699219 29.722656 13.574219 29.773438 C 13.453125 29.824219 13.34375 29.898438 13.25 29.992188 C 13.15625 30.085938 13.082031 30.195312 13.03125 30.316406 C 12.980469 30.4375 12.957031 30.566406 12.957031 30.699219 L 12.957031 36.792969 C 12.957031 36.925781 12.980469 37.054688 13.03125 37.175781 C 13.082031 37.296875 13.15625 37.40625 13.25 37.5 C 13.34375 37.59375 13.453125 37.664062 13.574219 37.714844 C 13.699219 37.765625 13.824219 37.792969 13.960938 37.792969 L 20.074219 37.792969 C 20.207031 37.792969 20.335938 37.765625 20.457031 37.714844 C 20.582031 37.664062 20.6875 37.59375 20.78125 37.5 C 20.875 37.40625 20.949219 37.296875 21 37.175781 C 21.050781 37.054688 21.078125 36.925781 21.078125 36.792969 L 21.078125 30.699219 C 21.078125 30.566406 21.050781 30.4375 21 30.316406 C 20.949219 30.195312 20.875 30.085938 20.78125 29.992188 C 20.6875 29.898438 20.582031 29.824219 20.457031 29.773438 C 20.335938 29.722656 20.207031 29.699219 20.074219 29.699219 Z M 13.960938 29.699219 " fill-opacity="1" fill-rule="nonzero"/><path fill="#6a994e" d="M 17.808594 36 C 17.632812 36 17.488281 35.9375 17.367188 35.816406 L 15.046875 33.507812 C 14.925781 33.386719 14.867188 33.238281 14.867188 33.066406 C 14.867188 32.894531 14.925781 32.75 15.046875 32.628906 C 15.167969 32.507812 15.316406 32.445312 15.488281 32.445312 C 15.660156 32.445312 15.808594 32.507812 15.929688 32.628906 L 17.808594 34.5 L 23.628906 28.695312 C 23.75 28.578125 23.898438 28.519531 24.066406 28.519531 C 24.238281 28.523438 24.382812 28.582031 24.503906 28.703125 C 24.621094 28.824219 24.683594 28.96875 24.683594 29.136719 C 24.6875 29.304688 24.628906 29.453125 24.511719 29.574219 L 18.246094 35.816406 C 18.125 35.9375 17.980469 36 17.808594 36 Z M 17.808594 36 " fill-opacity="1" fill-rule="nonzero"/><path fill="#6a994e" d="M 47.816406 30.378906 L 27.664062 30.378906 C 27.492188 30.378906 27.347656 30.320312 27.222656 30.199219 C 27.101562 30.078125 27.042969 29.929688 27.042969 29.757812 C 27.042969 29.585938 27.101562 29.441406 27.222656 29.320312 C 27.347656 29.199219 27.492188 29.136719 27.664062 29.136719 L 47.816406 29.136719 C 47.988281 29.136719 48.136719 29.199219 48.257812 29.320312 C 48.378906 29.441406 48.441406 29.585938 48.441406 29.757812 C 48.441406 29.929688 48.378906 30.078125 48.257812 30.199219 C 48.136719 30.320312 47.988281 30.378906 47.816406 30.378906 Z M 47.816406 30.378906 " fill-opacity="1" fill-rule="nonzero"/><path fill="#6a994e" d="M 47.816406 34.367188 L 27.664062 34.367188 C 27.492188 34.367188 27.347656 34.304688 27.222656 34.183594 C 27.101562 34.0625 27.042969 33.917969 27.042969 33.746094 C 27.042969 33.574219 27.101562 33.425781 27.222656 33.304688 C 27.347656 33.183594 27.492188 33.125 27.664062 33.125 L 47.816406 33.125 C 47.988281 33.125 48.136719 33.183594 48.257812 33.304688 C 48.378906 33.425781 48.441406 33.574219 48.441406 33.746094 C 48.441406 33.917969 48.378906 34.0625 48.257812 34.183594 C 48.136719 34.304688 47.988281 34.367188 47.816406 34.367188 Z M 47.816406 34.367188 " fill-opacity="1" fill-rule="nonzero"/><path fill="#6a994e" d="M 47.816406 38.351562 L 27.664062 38.351562 C 27.492188 38.351562 27.347656 38.292969 27.222656 38.171875 C 27.101562 38.050781 27.042969 37.902344 27.042969 37.730469 C 27.042969 37.558594 27.101562 37.414062 27.222656 37.292969 C 27.347656 37.171875 27.492188 37.109375 27.664062 37.109375 L 47.816406 37.109375 C 47.988281 37.109375 48.136719 37.171875 48.257812 37.292969 C 48.378906 37.414062 48.441406 37.558594 48.441406 37.730469 C 48.441406 37.902344 48.378906 38.050781 48.257812 38.171875 C 48.136719 38.292969 47.988281 38.351562 47.816406 38.351562 Z M 47.816406 38.351562 " fill-opacity="1" fill-rule="nonzero"/><path fill="#6a994e" d="M 20.074219 53.796875 L 13.960938 53.796875 C 13.660156 53.796875 13.375 53.738281 13.097656 53.625 C 12.824219 53.511719 12.578125 53.347656 12.367188 53.136719 C 12.15625 52.929688 11.996094 52.683594 11.878906 52.410156 C 11.765625 52.136719 11.710938 51.851562 11.707031 51.550781 L 11.707031 45.460938 C 11.710938 45.160156 11.765625 44.875 11.878906 44.601562 C 11.996094 44.328125 12.15625 44.082031 12.367188 43.875 C 12.578125 43.664062 12.824219 43.5 13.097656 43.386719 C 13.375 43.273438 13.660156 43.214844 13.960938 43.214844 L 20.074219 43.214844 C 20.371094 43.214844 20.660156 43.273438 20.933594 43.386719 C 21.210938 43.5 21.453125 43.664062 21.664062 43.875 C 21.875 44.082031 22.039062 44.328125 22.152344 44.601562 C 22.265625 44.875 22.324219 45.160156 22.324219 45.460938 L 22.324219 51.550781 C 22.324219 51.851562 22.265625 52.136719 22.152344 52.410156 C 22.039062 52.683594 21.875 52.929688 21.664062 53.136719 C 21.453125 53.347656 21.210938 53.511719 20.933594 53.625 C 20.660156 53.738281 20.371094 53.796875 20.074219 53.796875 Z M 13.960938 44.457031 C 13.824219 44.457031 13.699219 44.484375 13.574219 44.535156 C 13.453125 44.585938 13.34375 44.65625 13.25 44.75 C 13.15625 44.84375 13.082031 44.953125 13.03125 45.078125 C 12.980469 45.199219 12.957031 45.328125 12.957031 45.460938 L 12.957031 51.550781 C 12.957031 51.683594 12.980469 51.8125 13.03125 51.933594 C 13.082031 52.058594 13.15625 52.167969 13.25 52.261719 C 13.34375 52.355469 13.453125 52.425781 13.574219 52.476562 C 13.699219 52.527344 13.824219 52.554688 13.960938 52.554688 L 20.074219 52.554688 C 20.207031 52.554688 20.335938 52.527344 20.457031 52.476562 C 20.582031 52.425781 20.6875 52.355469 20.78125 52.261719 C 20.878906 52.167969 20.949219 52.058594 21 51.933594 C 21.050781 51.8125 21.078125 51.683594 21.078125 51.550781 L 21.078125 45.460938 C 21.078125 45.328125 21.050781 45.199219 21 45.078125 C 20.949219 44.953125 20.878906 44.84375 20.78125 44.75 C 20.6875 44.65625 20.582031 44.585938 20.457031 44.535156 C 20.335938 44.484375 20.207031 44.457031 20.074219 44.457031 Z M 13.960938 44.457031 " fill-opacity="1" fill-rule="nonzero"/><path fill="#6a994e" d="M 17.808594 50.757812 C 17.632812 50.757812 17.488281 50.699219 17.367188 50.578125 L 15.046875 48.265625 C 14.929688 48.140625 14.871094 47.996094 14.875 47.828125 C 14.875 47.65625 14.9375 47.511719 15.054688 47.394531 C 15.175781 47.273438 15.320312 47.210938 15.492188 47.210938 C 15.660156 47.210938 15.808594 47.269531 15.929688 47.386719 L 17.808594 49.257812 L 23.628906 43.453125 C 23.75 43.332031 23.898438 43.265625 24.070312 43.265625 C 24.246094 43.265625 24.394531 43.324219 24.519531 43.449219 C 24.640625 43.570312 24.703125 43.71875 24.699219 43.890625 C 24.699219 44.066406 24.636719 44.210938 24.511719 44.332031 L 18.246094 50.578125 C 18.125 50.699219 17.980469 50.757812 17.808594 50.757812 Z M 17.808594 50.757812 " fill-opacity="1" fill-rule="nonzero"/><path fill="#6a994e" d="M 47.816406 45.140625 L 27.664062 45.140625 C 27.492188 45.140625 27.347656 45.078125 27.222656 44.957031 C 27.101562 44.835938 27.042969 44.691406 27.042969 44.519531 C 27.042969 44.347656 27.101562 44.203125 27.222656 44.078125 C 27.347656 43.957031 27.492188 43.898438 27.664062 43.898438 L 47.816406 43.898438 C 47.988281 43.898438 48.136719 43.957031 48.257812 44.078125 C 48.378906 44.203125 48.441406 44.347656 48.441406 44.519531 C 48.441406 44.691406 48.378906 44.835938 48.257812 44.957031 C 48.136719 45.078125 47.988281 45.140625 47.816406 45.140625 Z M 47.816406 45.140625 " fill-opacity="1" fill-rule="nonzero"/><path fill="#6a994e" d="M 47.816406 49.125 L 27.664062 49.125 C 27.492188 49.125 27.347656 49.066406 27.222656 48.945312 C 27.101562 48.824219 27.042969 48.675781 27.042969 48.503906 C 27.042969 48.335938 27.101562 48.1875 27.222656 48.066406 C 27.347656 47.945312 27.492188 47.882812 27.664062 47.882812 L 47.816406 47.882812 C 47.988281 47.882812 48.136719 47.945312 48.257812 48.066406 C 48.378906 48.1875 48.441406 48.335938 48.441406 48.503906 C 48.441406 48.675781 48.378906 48.824219 48.257812 48.945312 C 48.136719 49.066406 47.988281 49.125 47.816406 49.125 Z M 47.816406 49.125 " fill-opacity="1" fill-rule="nonzero"/><path fill="#6a994e" d="M 47.816406 53.113281 L 27.664062 53.113281 C 27.492188 53.113281 27.347656 53.050781 27.222656 52.929688 C 27.101562 52.808594 27.042969 52.664062 27.042969 52.492188 C 27.042969 52.320312 27.101562 52.175781 27.222656 52.050781 C 27.347656 51.929688 27.492188 51.871094 27.664062 51.871094 L 47.816406 51.871094 C 47.988281 51.871094 48.136719 51.929688 48.257812 52.050781 C 48.378906 52.175781 48.441406 52.320312 48.441406 52.492188 C 48.441406 52.664062 48.378906 52.808594 48.257812 52.929688 C 48.136719 53.050781 47.988281 53.113281 47.816406 53.113281 Z M 47.816406 53.113281 " fill-opacity="1" fill-rule="nonzero"/></svg>