<svg xmlns="http://www.w3.org/2000/svg" xmlns:xlink="http://www.w3.org/1999/xlink" width="96" zoomAndPan="magnify" viewBox="0 0 72 72" height="96" preserveAspectRatio="xMidYMid meet" version="1.0"><defs><clipPath id="1cf17c9651"><path d="M 10.125 7 L 61.875 7 L 61.875 72 L 10.125 72 Z M 10.125 7 " clip-rule="nonzero"/></clipPath></defs><g clip-path="url(#1cf17c9651)"><path fill="#6a994e" d="M 58.5 7.875 L 51.1875 7.875 L 51.1875 10.125 L 58.5 10.125 C 59.117188 10.125 59.625 10.632812 59.625 11.25 L 59.625 68.625 C 59.625 69.242188 59.117188 69.75 58.5 69.75 L 13.5 69.75 C 12.882812 69.75 12.375 69.242188 12.375 68.625 L 12.375 11.25 C 12.375 10.632812 12.882812 10.125 13.5 10.125 L 20.8125 10.125 L 20.8125 7.875 L 13.5 7.875 C 11.644531 7.875 10.125 9.394531 10.125 11.25 L 10.125 68.625 C 10.125 70.480469 11.644531 72 13.5 72 L 58.5 72 C 60.355469 72 61.875 70.480469 61.875 68.625 L 61.875 11.25 C 61.875 9.394531 60.355469 7.875 58.5 7.875 Z M 58.5 7.875 " fill-opacity="1" fill-rule="nonzero"/></g><path fill="#6a994e" d="M 24.1875 12.375 C 24.804688 12.375 25.3125 11.867188 25.3125 11.25 L 25.3125 6.804688 C 25.3125 6.804688 31.726562 6.804688 31.726562 6.804688 C 32.398438 6.804688 32.90625 6.242188 32.851562 5.570312 C 32.851562 5.511719 32.851562 5.398438 32.851562 5.34375 C 32.851562 3.65625 34.257812 2.25 36 2.25 C 37.742188 2.25 39.148438 3.65625 39.148438 5.34375 C 39.148438 5.398438 39.148438 5.511719 39.148438 5.570312 C 39.09375 6.1875 39.601562 6.804688 40.273438 6.804688 L 46.6875 6.804688 L 46.6875 11.25 C 46.6875 11.867188 47.195312 12.375 47.8125 12.375 C 48.429688 12.375 48.9375 11.867188 48.9375 11.25 L 48.9375 6.804688 C 48.9375 5.570312 47.925781 4.554688 46.6875 4.554688 L 41.34375 4.554688 C 40.949219 1.96875 38.699219 0 36 0 C 33.300781 0 31.050781 1.96875 30.65625 4.554688 L 25.3125 4.554688 C 24.074219 4.554688 23.0625 5.570312 23.0625 6.804688 L 23.0625 11.25 C 23.0625 11.867188 23.570312 12.375 24.1875 12.375 Z M 24.1875 12.375 " fill-opacity="1" fill-rule="nonzero"/><path fill="#6a994e" d="M 37.125 9.5625 C 37.125 9.710938 37.097656 9.855469 37.039062 9.992188 C 36.980469 10.128906 36.902344 10.253906 36.796875 10.359375 C 36.691406 10.464844 36.566406 10.542969 36.429688 10.601562 C 36.292969 10.660156 36.148438 10.6875 36 10.6875 C 35.851562 10.6875 35.707031 10.660156 35.570312 10.601562 C 35.433594 10.542969 35.308594 10.464844 35.203125 10.359375 C 35.097656 10.253906 35.019531 10.128906 34.960938 9.992188 C 34.902344 9.855469 34.875 9.710938 34.875 9.5625 C 34.875 9.414062 34.902344 9.269531 34.960938 9.132812 C 35.019531 8.996094 35.097656 8.871094 35.203125 8.765625 C 35.308594 8.660156 35.433594 8.582031 35.570312 8.523438 C 35.707031 8.464844 35.851562 8.4375 36 8.4375 C 36.148438 8.4375 36.292969 8.464844 36.429688 8.523438 C 36.566406 8.582031 36.691406 8.660156 36.796875 8.765625 C 36.902344 8.871094 36.980469 8.996094 37.039062 9.132812 C 37.097656 9.269531 37.125 9.414062 37.125 9.5625 Z M 37.125 9.5625 " fill-opacity="1" fill-rule="nonzero"/><path fill="#6a994e" d="M 19.125 17.4375 C 18.507812 17.4375 18 17.945312 18 18.5625 C 18 19.179688 18.507812 19.6875 19.125 19.6875 L 20.25 19.6875 C 20.867188 19.6875 21.375 19.179688 21.375 18.5625 C 21.375 17.945312 20.867188 17.4375 20.25 17.4375 Z M 19.125 17.4375 " fill-opacity="1" fill-rule="nonzero"/><path fill="#6a994e" d="M 52.875 17.4375 L 24.75 17.4375 C 24.132812 17.4375 23.625 17.945312 23.625 18.5625 C 23.625 19.179688 24.132812 19.6875 24.75 19.6875 L 52.875 19.6875 C 53.492188 19.6875 54 19.179688 54 18.5625 C 54 17.945312 53.492188 17.4375 52.875 17.4375 Z M 52.875 17.4375 " fill-opacity="1" fill-rule="nonzero"/><path fill="#6a994e" d="M 19.125 25.3125 L 20.25 25.3125 C 20.867188 25.3125 21.375 24.804688 21.375 24.1875 C 21.375 23.570312 20.867188 23.0625 20.25 23.0625 L 19.125 23.0625 C 18.507812 23.0625 18 23.570312 18 24.1875 C 18 24.804688 18.507812 25.3125 19.125 25.3125 Z M 19.125 25.3125 " fill-opacity="1" fill-rule="nonzero"/><path fill="#6a994e" d="M 52.875 23.0625 L 24.75 23.0625 C 24.132812 23.0625 23.625 23.570312 23.625 24.1875 C 23.625 24.804688 24.132812 25.3125 24.75 25.3125 L 52.875 25.3125 C 53.492188 25.3125 54 24.804688 54 24.1875 C 54 23.570312 53.492188 23.0625 52.875 23.0625 Z M 52.875 23.0625 " fill-opacity="1" fill-rule="nonzero"/><path fill="#6a994e" d="M 19.125 30.9375 L 20.25 30.9375 C 20.867188 30.9375 21.375 30.429688 21.375 29.8125 C 21.375 29.195312 20.867188 28.6875 20.25 28.6875 L 19.125 28.6875 C 18.507812 28.6875 18 29.195312 18 29.8125 C 18 30.429688 18.507812 30.9375 19.125 30.9375 Z M 19.125 30.9375 " fill-opacity="1" fill-rule="nonzero"/><path fill="#6a994e" d="M 52.875 28.6875 L 24.75 28.6875 C 24.132812 28.6875 23.625 29.195312 23.625 29.8125 C 23.625 30.429688 24.132812 30.9375 24.75 30.9375 L 52.875 30.9375 C 53.492188 30.9375 54 30.429688 54 29.8125 C 54 29.195312 53.492188 28.6875 52.875 28.6875 Z M 52.875 28.6875 " fill-opacity="1" fill-rule="nonzero"/><path fill="#6a994e" d="M 19.125 36.5625 L 20.25 36.5625 C 20.867188 36.5625 21.375 36.054688 21.375 35.4375 C 21.375 34.820312 20.867188 34.3125 20.25 34.3125 L 19.125 34.3125 C 18.507812 34.3125 18 34.820312 18 35.4375 C 18 36.054688 18.507812 36.5625 19.125 36.5625 Z M 19.125 36.5625 " fill-opacity="1" fill-rule="nonzero"/><path fill="#6a994e" d="M 52.875 34.3125 L 24.75 34.3125 C 24.132812 34.3125 23.625 34.820312 23.625 35.4375 C 23.625 36.054688 24.132812 36.5625 24.75 36.5625 L 52.875 36.5625 C 53.492188 36.5625 54 36.054688 54 35.4375 C 54 34.820312 53.492188 34.3125 52.875 34.3125 Z M 52.875 34.3125 " fill-opacity="1" fill-rule="nonzero"/><path fill="#6a994e" d="M 19.125 42.1875 L 20.25 42.1875 C 20.867188 42.1875 21.375 41.679688 21.375 41.0625 C 21.375 40.445312 20.867188 39.9375 20.25 39.9375 L 19.125 39.9375 C 18.507812 39.9375 18 40.445312 18 41.0625 C 18 41.679688 18.507812 42.1875 19.125 42.1875 Z M 19.125 42.1875 " fill-opacity="1" fill-rule="nonzero"/><path fill="#6a994e" d="M 52.875 39.9375 L 24.75 39.9375 C 24.132812 39.9375 23.625 40.445312 23.625 41.0625 C 23.625 41.679688 24.132812 42.1875 24.75 42.1875 L 52.875 42.1875 C 53.492188 42.1875 54 41.679688 54 41.0625 C 54 40.445312 53.492188 39.9375 52.875 39.9375 Z M 52.875 39.9375 " fill-opacity="1" fill-rule="nonzero"/><path fill="#6a994e" d="M 19.125 47.8125 L 20.25 47.8125 C 20.867188 47.8125 21.375 47.304688 21.375 46.6875 C 21.375 46.070312 20.867188 45.5625 20.25 45.5625 L 19.125 45.5625 C 18.507812 45.5625 18 46.070312 18 46.6875 C 18 47.304688 18.507812 47.8125 19.125 47.8125 Z M 19.125 47.8125 " fill-opacity="1" fill-rule="nonzero"/><path fill="#6a994e" d="M 52.875 45.5625 L 24.75 45.5625 C 24.132812 45.5625 23.625 46.070312 23.625 46.6875 C 23.625 47.304688 24.132812 47.8125 24.75 47.8125 L 52.875 47.8125 C 53.492188 47.8125 54 47.304688 54 46.6875 C 54 46.070312 53.492188 45.5625 52.875 45.5625 Z M 52.875 45.5625 " fill-opacity="1" fill-rule="nonzero"/><path fill="#6a994e" d="M 22.5 62.4375 L 49.5 62.4375 C 50.117188 62.4375 50.625 61.929688 50.625 61.3125 C 50.625 60.695312 50.117188 60.1875 49.5 60.1875 L 47.25 60.1875 L 47.25 58.5 C 47.25 57.882812 46.742188 57.375 46.125 57.375 C 45.507812 57.375 45 57.882812 45 58.5 L 45 60.1875 L 40.5 60.1875 L 40.5 56.25 C 40.5 55.632812 39.992188 55.125 39.375 55.125 C 38.757812 55.125 38.25 55.632812 38.25 56.25 L 38.25 60.1875 L 33.75 60.1875 L 33.75 54 C 33.75 53.382812 33.242188 52.875 32.625 52.875 C 32.007812 52.875 31.5 53.382812 31.5 54 L 31.5 60.1875 L 27 60.1875 L 27 52.3125 C 27 51.695312 26.492188 51.1875 25.875 51.1875 C 25.257812 51.1875 24.75 51.695312 24.75 52.3125 L 24.75 60.1875 L 22.5 60.1875 C 21.882812 60.1875 21.375 60.695312 21.375 61.3125 C 21.375 61.929688 21.882812 62.4375 22.5 62.4375 Z M 22.5 62.4375 " fill-opacity="1" fill-rule="nonzero"/></svg>