<svg xmlns="http://www.w3.org/2000/svg" xmlns:xlink="http://www.w3.org/1999/xlink" width="96" zoomAndPan="magnify" viewBox="0 0 72 72" height="96" preserveAspectRatio="xMidYMid meet" version="1.0"><defs><clipPath id="3137f832a1"><path d="M 3.601562 0 L 68.101562 0 L 68.101562 72 L 3.601562 72 Z M 3.601562 0 " clip-rule="nonzero"/></clipPath><clipPath id="e7c9759160"><path d="M 3.601562 51 L 6 51 L 6 54 L 3.601562 54 Z M 3.601562 51 " clip-rule="nonzero"/></clipPath></defs><path fill="#6a994e" d="M 11.960938 34.792969 L 16.738281 34.792969 C 17.054688 34.792969 17.359375 34.730469 17.652344 34.609375 C 17.945312 34.488281 18.203125 34.316406 18.429688 34.089844 C 18.652344 33.863281 18.824219 33.605469 18.945312 33.3125 C 19.066406 33.015625 19.128906 32.710938 19.128906 32.394531 L 19.128906 27.59375 C 19.128906 27.273438 19.066406 26.96875 18.945312 26.675781 C 18.824219 26.382812 18.652344 26.121094 18.429688 25.898438 C 18.203125 25.671875 17.945312 25.5 17.652344 25.375 C 17.359375 25.253906 17.054688 25.195312 16.738281 25.195312 L 11.960938 25.195312 C 11.644531 25.195312 11.339844 25.253906 11.046875 25.375 C 10.753906 25.5 10.496094 25.671875 10.273438 25.898438 C 10.046875 26.121094 9.875 26.382812 9.753906 26.675781 C 9.632812 26.96875 9.570312 27.273438 9.570312 27.59375 L 9.570312 32.394531 C 9.570312 32.710938 9.632812 33.015625 9.753906 33.3125 C 9.875 33.605469 10.046875 33.863281 10.273438 34.089844 C 10.496094 34.316406 10.753906 34.488281 11.046875 34.609375 C 11.339844 34.730469 11.644531 34.792969 11.960938 34.792969 Z M 11.960938 27.59375 L 16.738281 27.59375 L 16.738281 32.394531 L 11.960938 32.394531 Z M 11.960938 27.59375 " fill-opacity="1" fill-rule="nonzero"/><path fill="#6a994e" d="M 26.292969 34.792969 L 31.070312 34.792969 C 31.390625 34.792969 31.695312 34.730469 31.988281 34.609375 C 32.277344 34.488281 32.539062 34.316406 32.761719 34.089844 C 32.984375 33.863281 33.15625 33.605469 33.277344 33.3125 C 33.402344 33.015625 33.460938 32.710938 33.460938 32.394531 L 33.460938 27.59375 C 33.460938 27.273438 33.402344 26.96875 33.277344 26.675781 C 33.15625 26.382812 32.984375 26.121094 32.761719 25.898438 C 32.539062 25.671875 32.277344 25.5 31.988281 25.375 C 31.695312 25.253906 31.390625 25.195312 31.070312 25.195312 L 26.292969 25.195312 C 25.976562 25.195312 25.671875 25.253906 25.378906 25.375 C 25.085938 25.5 24.828125 25.671875 24.605469 25.898438 C 24.382812 26.121094 24.207031 26.382812 24.085938 26.675781 C 23.964844 26.96875 23.90625 27.273438 23.90625 27.59375 L 23.90625 32.394531 C 23.90625 32.710938 23.964844 33.015625 24.085938 33.3125 C 24.207031 33.605469 24.382812 33.863281 24.605469 34.089844 C 24.828125 34.316406 25.085938 34.488281 25.378906 34.609375 C 25.671875 34.730469 25.976562 34.792969 26.292969 34.792969 Z M 26.292969 27.59375 L 31.070312 27.59375 L 31.070312 32.394531 L 26.292969 32.394531 Z M 26.292969 27.59375 " fill-opacity="1" fill-rule="nonzero"/><path fill="#6a994e" d="M 40.628906 34.792969 L 45.40625 34.792969 C 45.722656 34.792969 46.027344 34.730469 46.320312 34.609375 C 46.613281 34.488281 46.871094 34.316406 47.09375 34.089844 C 47.320312 33.863281 47.492188 33.605469 47.613281 33.3125 C 47.734375 33.015625 47.792969 32.710938 47.792969 32.394531 L 47.792969 27.59375 C 47.792969 27.273438 47.734375 26.96875 47.613281 26.675781 C 47.492188 26.382812 47.320312 26.121094 47.09375 25.898438 C 46.871094 25.671875 46.613281 25.5 46.320312 25.375 C 46.027344 25.253906 45.722656 25.195312 45.40625 25.195312 L 40.628906 25.195312 C 40.3125 25.195312 40.007812 25.253906 39.714844 25.375 C 39.421875 25.5 39.164062 25.671875 38.9375 25.898438 C 38.714844 26.121094 38.542969 26.382812 38.421875 26.675781 C 38.300781 26.96875 38.238281 27.273438 38.238281 27.59375 L 38.238281 32.394531 C 38.238281 32.710938 38.300781 33.015625 38.421875 33.3125 C 38.542969 33.605469 38.714844 33.863281 38.9375 34.089844 C 39.164062 34.316406 39.421875 34.488281 39.714844 34.609375 C 40.007812 34.730469 40.3125 34.792969 40.628906 34.792969 Z M 40.628906 27.59375 L 45.40625 27.59375 L 45.40625 32.394531 L 40.628906 32.394531 Z M 40.628906 27.59375 " fill-opacity="1" fill-rule="nonzero"/><path fill="#6a994e" d="M 54.960938 34.792969 L 59.738281 34.792969 C 60.054688 34.792969 60.359375 34.730469 60.652344 34.609375 C 60.945312 34.488281 61.203125 34.316406 61.429688 34.089844 C 61.652344 33.863281 61.824219 33.605469 61.945312 33.3125 C 62.066406 33.015625 62.128906 32.710938 62.128906 32.394531 L 62.128906 27.59375 C 62.128906 27.273438 62.066406 26.96875 61.945312 26.675781 C 61.824219 26.382812 61.652344 26.121094 61.429688 25.898438 C 61.203125 25.671875 60.945312 25.5 60.652344 25.375 C 60.359375 25.253906 60.054688 25.195312 59.738281 25.195312 L 54.960938 25.195312 C 54.644531 25.195312 54.339844 25.253906 54.046875 25.375 C 53.753906 25.5 53.496094 25.671875 53.273438 25.898438 C 53.046875 26.121094 52.875 26.382812 52.753906 26.675781 C 52.632812 26.96875 52.570312 27.273438 52.570312 27.59375 L 52.570312 32.394531 C 52.570312 32.710938 52.632812 33.015625 52.753906 33.3125 C 52.875 33.605469 53.046875 33.863281 53.273438 34.089844 C 53.496094 34.316406 53.753906 34.488281 54.046875 34.609375 C 54.339844 34.730469 54.644531 34.792969 54.960938 34.792969 Z M 54.960938 27.59375 L 59.738281 27.59375 L 59.738281 32.394531 L 54.960938 32.394531 Z M 54.960938 27.59375 " fill-opacity="1" fill-rule="nonzero"/><path fill="#6a994e" d="M 9.570312 45.589844 C 9.570312 45.910156 9.632812 46.214844 9.753906 46.511719 C 9.875 46.804688 10.046875 47.0625 10.273438 47.289062 C 10.496094 47.511719 10.753906 47.6875 11.046875 47.808594 C 11.339844 47.929688 11.644531 47.992188 11.960938 47.992188 L 16.738281 47.992188 C 17.054688 47.992188 17.359375 47.929688 17.652344 47.808594 C 17.945312 47.6875 18.203125 47.511719 18.429688 47.289062 C 18.652344 47.0625 18.824219 46.804688 18.945312 46.511719 C 19.066406 46.214844 19.128906 45.910156 19.128906 45.589844 L 19.128906 40.792969 C 19.128906 40.472656 19.066406 40.167969 18.945312 39.875 C 18.824219 39.578125 18.652344 39.320312 18.429688 39.09375 C 18.203125 38.871094 17.945312 38.695312 17.652344 38.574219 C 17.359375 38.453125 17.054688 38.390625 16.738281 38.390625 L 11.960938 38.390625 C 11.644531 38.390625 11.339844 38.453125 11.046875 38.574219 C 10.753906 38.695312 10.496094 38.871094 10.273438 39.09375 C 10.046875 39.320312 9.875 39.578125 9.753906 39.875 C 9.632812 40.167969 9.570312 40.472656 9.570312 40.792969 Z M 11.960938 40.792969 L 16.738281 40.792969 L 16.738281 45.589844 L 11.960938 45.589844 Z M 11.960938 40.792969 " fill-opacity="1" fill-rule="nonzero"/><path fill="#6a994e" d="M 23.90625 44.992188 C 23.90625 45.308594 23.964844 45.617188 24.085938 45.910156 C 24.207031 46.203125 24.382812 46.464844 24.605469 46.6875 C 24.828125 46.914062 25.085938 47.085938 25.378906 47.207031 C 25.671875 47.332031 25.976562 47.390625 26.292969 47.390625 L 31.070312 47.390625 C 31.390625 47.390625 31.695312 47.332031 31.988281 47.207031 C 32.277344 47.085938 32.539062 46.914062 32.761719 46.6875 C 32.984375 46.464844 33.15625 46.203125 33.277344 45.910156 C 33.402344 45.617188 33.460938 45.308594 33.460938 44.992188 L 33.460938 40.191406 C 33.460938 39.875 33.402344 39.566406 33.277344 39.273438 C 33.15625 38.980469 32.984375 38.71875 32.761719 38.496094 C 32.539062 38.269531 32.277344 38.097656 31.988281 37.976562 C 31.695312 37.851562 31.390625 37.792969 31.070312 37.792969 L 26.292969 37.792969 C 25.976562 37.792969 25.671875 37.851562 25.378906 37.976562 C 25.085938 38.097656 24.828125 38.269531 24.605469 38.496094 C 24.382812 38.71875 24.207031 38.980469 24.085938 39.273438 C 23.964844 39.566406 23.90625 39.875 23.90625 40.191406 Z M 26.292969 40.191406 L 31.070312 40.191406 L 31.070312 44.992188 L 26.292969 44.992188 Z M 26.292969 40.191406 " fill-opacity="1" fill-rule="nonzero"/><path fill="#6a994e" d="M 38.238281 44.992188 C 38.238281 45.308594 38.300781 45.617188 38.421875 45.910156 C 38.542969 46.203125 38.714844 46.464844 38.9375 46.6875 C 39.164062 46.914062 39.421875 47.085938 39.714844 47.207031 C 40.007812 47.332031 40.3125 47.390625 40.628906 47.390625 L 45.40625 47.390625 C 45.722656 47.390625 46.027344 47.332031 46.320312 47.207031 C 46.613281 47.085938 46.871094 46.914062 47.09375 46.6875 C 47.320312 46.464844 47.492188 46.203125 47.613281 45.910156 C 47.734375 45.617188 47.792969 45.308594 47.792969 44.992188 L 47.792969 40.191406 C 47.792969 39.875 47.734375 39.566406 47.613281 39.273438 C 47.492188 38.980469 47.320312 38.71875 47.09375 38.496094 C 46.871094 38.269531 46.613281 38.097656 46.320312 37.976562 C 46.027344 37.851562 45.722656 37.792969 45.40625 37.792969 L 40.628906 37.792969 C 40.3125 37.792969 40.007812 37.851562 39.714844 37.976562 C 39.421875 38.097656 39.164062 38.269531 38.9375 38.496094 C 38.714844 38.71875 38.542969 38.980469 38.421875 39.273438 C 38.300781 39.566406 38.238281 39.875 38.238281 40.191406 Z M 40.628906 40.191406 L 45.40625 40.191406 L 45.40625 44.992188 L 40.628906 44.992188 Z M 40.628906 40.191406 " fill-opacity="1" fill-rule="nonzero"/><path fill="#6a994e" d="M 52.570312 44.992188 C 52.570312 45.308594 52.632812 45.617188 52.753906 45.910156 C 52.875 46.203125 53.046875 46.464844 53.273438 46.6875 C 53.496094 46.914062 53.753906 47.085938 54.046875 47.207031 C 54.339844 47.332031 54.644531 47.390625 54.960938 47.390625 L 59.738281 47.390625 C 60.054688 47.390625 60.359375 47.332031 60.652344 47.207031 C 60.945312 47.085938 61.203125 46.914062 61.429688 46.6875 C 61.652344 46.464844 61.824219 46.203125 61.945312 45.910156 C 62.066406 45.617188 62.128906 45.308594 62.128906 44.992188 L 62.128906 40.191406 C 62.128906 39.875 62.066406 39.566406 61.945312 39.273438 C 61.824219 38.980469 61.652344 38.71875 61.429688 38.496094 C 61.203125 38.269531 60.945312 38.097656 60.652344 37.976562 C 60.359375 37.851562 60.054688 37.792969 59.738281 37.792969 L 54.960938 37.792969 C 54.644531 37.792969 54.339844 37.851562 54.046875 37.976562 C 53.753906 38.097656 53.496094 38.269531 53.273438 38.496094 C 53.046875 38.71875 52.875 38.980469 52.753906 39.273438 C 52.632812 39.566406 52.570312 39.875 52.570312 40.191406 Z M 54.960938 40.191406 L 59.738281 40.191406 L 59.738281 44.992188 L 54.960938 44.992188 Z M 54.960938 40.191406 " fill-opacity="1" fill-rule="nonzero"/><path fill="#6a994e" d="M 9.570312 57.589844 C 9.570312 57.910156 9.632812 58.214844 9.753906 58.507812 C 9.875 58.800781 10.046875 59.0625 10.273438 59.285156 C 10.496094 59.511719 10.753906 59.683594 11.046875 59.808594 C 11.339844 59.929688 11.644531 59.988281 11.960938 59.988281 L 16.738281 59.988281 C 17.054688 59.988281 17.359375 59.929688 17.652344 59.808594 C 17.945312 59.683594 18.203125 59.511719 18.429688 59.285156 C 18.652344 59.0625 18.824219 58.800781 18.945312 58.507812 C 19.066406 58.214844 19.128906 57.910156 19.128906 57.589844 L 19.128906 52.789062 C 19.128906 52.472656 19.066406 52.167969 18.945312 51.871094 C 18.824219 51.578125 18.652344 51.320312 18.429688 51.09375 C 18.203125 50.867188 17.945312 50.695312 17.652344 50.574219 C 17.359375 50.453125 17.054688 50.390625 16.738281 50.390625 L 11.960938 50.390625 C 11.644531 50.390625 11.339844 50.453125 11.046875 50.574219 C 10.753906 50.695312 10.496094 50.867188 10.273438 51.09375 C 10.046875 51.320312 9.875 51.578125 9.753906 51.871094 C 9.632812 52.167969 9.570312 52.472656 9.570312 52.789062 Z M 11.960938 52.789062 L 16.738281 52.789062 L 16.738281 57.589844 L 11.960938 57.589844 Z M 11.960938 52.789062 " fill-opacity="1" fill-rule="nonzero"/><path fill="#6a994e" d="M 23.90625 57.589844 C 23.90625 57.910156 23.964844 58.214844 24.085938 58.507812 C 24.207031 58.800781 24.382812 59.0625 24.605469 59.285156 C 24.828125 59.511719 25.085938 59.683594 25.378906 59.808594 C 25.671875 59.929688 25.976562 59.988281 26.292969 59.988281 L 31.070312 59.988281 C 31.390625 59.988281 31.695312 59.929688 31.988281 59.808594 C 32.277344 59.683594 32.539062 59.511719 32.761719 59.285156 C 32.984375 59.0625 33.15625 58.800781 33.277344 58.507812 C 33.402344 58.214844 33.460938 57.910156 33.460938 57.589844 L 33.460938 52.789062 C 33.460938 52.472656 33.402344 52.167969 33.277344 51.871094 C 33.15625 51.578125 32.984375 51.320312 32.761719 51.09375 C 32.539062 50.867188 32.277344 50.695312 31.988281 50.574219 C 31.695312 50.453125 31.390625 50.390625 31.070312 50.390625 L 26.292969 50.390625 C 25.976562 50.390625 25.671875 50.453125 25.378906 50.574219 C 25.085938 50.695312 24.828125 50.867188 24.605469 51.09375 C 24.382812 51.320312 24.207031 51.578125 24.085938 51.871094 C 23.964844 52.167969 23.90625 52.472656 23.90625 52.789062 Z M 26.292969 52.789062 L 31.070312 52.789062 L 31.070312 57.589844 L 26.292969 57.589844 Z M 26.292969 52.789062 " fill-opacity="1" fill-rule="nonzero"/><path fill="#6a994e" d="M 38.238281 57.589844 C 38.238281 57.910156 38.300781 58.214844 38.421875 58.507812 C 38.542969 58.800781 38.714844 59.0625 38.9375 59.285156 C 39.164062 59.511719 39.421875 59.683594 39.714844 59.808594 C 40.007812 59.929688 40.3125 59.988281 40.628906 59.988281 L 45.40625 59.988281 C 45.722656 59.988281 46.027344 59.929688 46.320312 59.808594 C 46.613281 59.683594 46.871094 59.511719 47.09375 59.285156 C 47.320312 59.0625 47.492188 58.800781 47.613281 58.507812 C 47.734375 58.214844 47.792969 57.910156 47.792969 57.589844 L 47.792969 52.789062 C 47.792969 52.472656 47.734375 52.167969 47.613281 51.871094 C 47.492188 51.578125 47.320312 51.320312 47.09375 51.09375 C 46.871094 50.867188 46.613281 50.695312 46.320312 50.574219 C 46.027344 50.453125 45.722656 50.390625 45.40625 50.390625 L 40.628906 50.390625 C 40.3125 50.390625 40.007812 50.453125 39.714844 50.574219 C 39.421875 50.695312 39.164062 50.867188 38.9375 51.09375 C 38.714844 51.320312 38.542969 51.578125 38.421875 51.871094 C 38.300781 52.167969 38.238281 52.472656 38.238281 52.789062 Z M 40.628906 52.789062 L 45.40625 52.789062 L 45.40625 57.589844 L 40.628906 57.589844 Z M 40.628906 52.789062 " fill-opacity="1" fill-rule="nonzero"/><g clip-path="url(#3137f832a1)"><path fill="#6a994e" d="M 62.128906 4.796875 L 58.542969 4.796875 L 58.542969 4.195312 C 58.542969 3.921875 58.519531 3.648438 58.464844 3.375 C 58.410156 3.105469 58.332031 2.84375 58.226562 2.589844 C 58.121094 2.335938 57.992188 2.09375 57.839844 1.863281 C 57.6875 1.632812 57.515625 1.421875 57.320312 1.226562 C 57.125 1.03125 56.914062 0.855469 56.6875 0.703125 C 56.457031 0.550781 56.21875 0.421875 55.964844 0.316406 C 55.710938 0.210938 55.449219 0.132812 55.179688 0.078125 C 54.910156 0.0234375 54.636719 -0.00390625 54.363281 -0.00390625 C 54.089844 -0.00390625 53.816406 0.0234375 53.546875 0.078125 C 53.277344 0.132812 53.019531 0.210938 52.765625 0.316406 C 52.511719 0.421875 52.269531 0.550781 52.042969 0.703125 C 51.8125 0.855469 51.601562 1.03125 51.40625 1.226562 C 51.214844 1.421875 51.039062 1.632812 50.886719 1.863281 C 50.734375 2.09375 50.605469 2.335938 50.5 2.589844 C 50.398438 2.84375 50.316406 3.105469 50.261719 3.375 C 50.210938 3.648438 50.183594 3.921875 50.183594 4.195312 L 50.183594 4.796875 L 40.03125 4.796875 L 40.03125 4.195312 C 40.03125 3.921875 40.003906 3.648438 39.949219 3.375 C 39.898438 3.105469 39.816406 2.84375 39.710938 2.589844 C 39.605469 2.335938 39.476562 2.09375 39.324219 1.863281 C 39.171875 1.632812 39 1.421875 38.804688 1.226562 C 38.613281 1.03125 38.402344 0.855469 38.171875 0.703125 C 37.945312 0.550781 37.703125 0.421875 37.449219 0.316406 C 37.195312 0.210938 36.933594 0.132812 36.664062 0.078125 C 36.394531 0.0234375 36.125 -0.00390625 35.851562 -0.00390625 C 35.574219 -0.00390625 35.304688 0.0234375 35.035156 0.078125 C 34.765625 0.132812 34.503906 0.210938 34.25 0.316406 C 33.996094 0.421875 33.753906 0.550781 33.527344 0.703125 C 33.300781 0.855469 33.089844 1.03125 32.894531 1.226562 C 32.699219 1.421875 32.527344 1.632812 32.375 1.863281 C 32.222656 2.09375 32.09375 2.335938 31.988281 2.589844 C 31.882812 2.84375 31.804688 3.105469 31.75 3.375 C 31.695312 3.648438 31.667969 3.921875 31.667969 4.195312 L 31.667969 4.796875 L 21.515625 4.796875 L 21.515625 4.195312 C 21.515625 3.921875 21.488281 3.648438 21.4375 3.375 C 21.382812 3.105469 21.304688 2.84375 21.199219 2.589844 C 21.09375 2.335938 20.964844 2.09375 20.8125 1.863281 C 20.660156 1.632812 20.484375 1.421875 20.292969 1.226562 C 20.097656 1.03125 19.886719 0.855469 19.660156 0.703125 C 19.429688 0.550781 19.191406 0.421875 18.9375 0.316406 C 18.683594 0.210938 18.421875 0.132812 18.152344 0.078125 C 17.882812 0.0234375 17.609375 -0.00390625 17.335938 -0.00390625 C 17.0625 -0.00390625 16.789062 0.0234375 16.519531 0.078125 C 16.25 0.132812 15.988281 0.210938 15.734375 0.316406 C 15.484375 0.421875 15.242188 0.550781 15.011719 0.703125 C 14.785156 0.855469 14.574219 1.03125 14.378906 1.226562 C 14.1875 1.421875 14.011719 1.632812 13.859375 1.863281 C 13.707031 2.09375 13.578125 2.335938 13.472656 2.589844 C 13.367188 2.84375 13.289062 3.105469 13.234375 3.375 C 13.183594 3.648438 13.15625 3.921875 13.15625 4.195312 L 13.15625 4.796875 L 9.570312 4.796875 C 9.179688 4.796875 8.792969 4.835938 8.40625 4.914062 C 8.023438 4.988281 7.648438 5.105469 7.289062 5.253906 C 6.925781 5.40625 6.582031 5.589844 6.257812 5.808594 C 5.929688 6.027344 5.628906 6.277344 5.351562 6.554688 C 5.074219 6.832031 4.828125 7.136719 4.609375 7.464844 C 4.390625 7.792969 4.207031 8.136719 4.054688 8.5 C 3.90625 8.863281 3.792969 9.238281 3.714844 9.625 C 3.640625 10.011719 3.601562 10.402344 3.601562 10.796875 L 3.601562 47.992188 C 3.601562 48.148438 3.628906 48.304688 3.691406 48.449219 C 3.75 48.597656 3.835938 48.726562 3.949219 48.839844 C 4.0625 48.953125 4.191406 49.039062 4.335938 49.101562 C 4.484375 49.160156 4.636719 49.191406 4.792969 49.191406 C 4.953125 49.191406 5.105469 49.160156 5.25 49.101562 C 5.398438 49.039062 5.527344 48.953125 5.640625 48.839844 C 5.75 48.726562 5.835938 48.597656 5.898438 48.449219 C 5.957031 48.304688 5.988281 48.148438 5.988281 47.992188 L 5.988281 21.59375 L 65.710938 21.59375 L 65.710938 50.390625 C 65.710938 50.550781 65.679688 50.703125 65.621094 50.851562 C 65.558594 50.996094 65.472656 51.125 65.359375 51.238281 C 65.25 51.351562 65.121094 51.4375 64.972656 51.5 C 64.828125 51.558594 64.675781 51.589844 64.515625 51.589844 L 58.542969 51.589844 C 58.152344 51.589844 57.765625 51.628906 57.378906 51.707031 C 56.996094 51.785156 56.621094 51.898438 56.261719 52.050781 C 55.898438 52.199219 55.554688 52.386719 55.226562 52.605469 C 54.902344 52.824219 54.601562 53.070312 54.324219 53.351562 C 54.046875 53.628906 53.800781 53.929688 53.582031 54.257812 C 53.363281 54.585938 53.179688 54.933594 53.027344 55.296875 C 52.878906 55.660156 52.765625 56.035156 52.6875 56.421875 C 52.613281 56.804688 52.574219 57.195312 52.570312 57.589844 L 52.570312 63.589844 C 52.570312 63.75 52.542969 63.902344 52.480469 64.046875 C 52.421875 64.195312 52.335938 64.324219 52.222656 64.4375 C 52.109375 64.550781 51.980469 64.636719 51.835938 64.699219 C 51.6875 64.757812 51.535156 64.789062 51.378906 64.789062 L 9.570312 64.714844 C 9.097656 64.714844 8.640625 64.625 8.199219 64.441406 C 7.761719 64.257812 7.375 64 7.039062 63.660156 C 6.703125 63.324219 6.445312 62.933594 6.261719 62.492188 C 6.078125 62.054688 5.988281 61.59375 5.988281 61.117188 L 5.988281 57.589844 C 5.988281 57.429688 5.957031 57.277344 5.898438 57.132812 C 5.835938 56.984375 5.75 56.855469 5.640625 56.742188 C 5.527344 56.628906 5.398438 56.542969 5.25 56.480469 C 5.105469 56.421875 4.953125 56.390625 4.792969 56.390625 C 4.636719 56.390625 4.484375 56.421875 4.335938 56.480469 C 4.191406 56.542969 4.0625 56.628906 3.949219 56.742188 C 3.835938 56.855469 3.75 56.984375 3.691406 57.132812 C 3.628906 57.277344 3.601562 57.429688 3.601562 57.589844 L 3.601562 65.988281 C 3.601562 66.382812 3.640625 66.773438 3.714844 67.160156 C 3.792969 67.546875 3.90625 67.921875 4.054688 68.285156 C 4.207031 68.648438 4.390625 68.992188 4.609375 69.320312 C 4.828125 69.648438 5.074219 69.949219 5.351562 70.230469 C 5.628906 70.507812 5.929688 70.757812 6.257812 70.976562 C 6.582031 71.195312 6.925781 71.378906 7.289062 71.53125 C 7.648438 71.679688 8.023438 71.792969 8.40625 71.871094 C 8.792969 71.949219 9.179688 71.988281 9.570312 71.988281 L 62.128906 71.988281 C 62.519531 71.988281 62.90625 71.949219 63.292969 71.871094 C 63.675781 71.792969 64.050781 71.679688 64.410156 71.53125 C 64.773438 71.378906 65.117188 71.195312 65.445312 70.976562 C 65.769531 70.757812 66.070312 70.507812 66.347656 70.230469 C 66.625 69.949219 66.875 69.648438 67.089844 69.320312 C 67.308594 68.992188 67.492188 68.648438 67.644531 68.285156 C 67.792969 67.921875 67.90625 67.546875 67.984375 67.160156 C 68.0625 66.773438 68.097656 66.382812 68.101562 65.988281 L 68.101562 10.796875 C 68.097656 10.402344 68.0625 10.011719 67.984375 9.625 C 67.90625 9.238281 67.792969 8.863281 67.644531 8.5 C 67.492188 8.136719 67.308594 7.792969 67.089844 7.464844 C 66.875 7.136719 66.625 6.832031 66.347656 6.554688 C 66.070312 6.277344 65.769531 6.027344 65.445312 5.808594 C 65.117188 5.589844 64.773438 5.40625 64.410156 5.253906 C 64.050781 5.105469 63.675781 4.988281 63.292969 4.914062 C 62.90625 4.835938 62.519531 4.796875 62.128906 4.796875 Z M 52.570312 4.195312 C 52.570312 3.957031 52.617188 3.726562 52.707031 3.507812 C 52.800781 3.285156 52.929688 3.09375 53.097656 2.921875 C 53.265625 2.753906 53.457031 2.625 53.679688 2.53125 C 53.898438 2.441406 54.125 2.394531 54.363281 2.394531 C 54.601562 2.394531 54.828125 2.441406 55.050781 2.53125 C 55.269531 2.625 55.460938 2.753906 55.628906 2.921875 C 55.796875 3.09375 55.929688 3.285156 56.019531 3.507812 C 56.109375 3.726562 56.15625 3.957031 56.15625 4.195312 L 56.15625 8.996094 C 56.15625 9.234375 56.109375 9.464844 56.019531 9.683594 C 55.929688 9.90625 55.796875 10.097656 55.628906 10.269531 C 55.460938 10.4375 55.269531 10.566406 55.050781 10.660156 C 54.828125 10.75 54.601562 10.796875 54.363281 10.796875 C 54.125 10.796875 53.898438 10.75 53.679688 10.660156 C 53.457031 10.566406 53.265625 10.4375 53.097656 10.269531 C 52.929688 10.097656 52.800781 9.90625 52.707031 9.683594 C 52.617188 9.464844 52.570312 9.234375 52.570312 8.996094 Z M 34.058594 4.195312 C 34.058594 3.957031 34.105469 3.726562 34.195312 3.507812 C 34.285156 3.285156 34.414062 3.09375 34.582031 2.921875 C 34.75 2.753906 34.945312 2.625 35.164062 2.53125 C 35.382812 2.441406 35.613281 2.394531 35.851562 2.394531 C 36.085938 2.394531 36.316406 2.441406 36.535156 2.53125 C 36.753906 2.625 36.949219 2.753906 37.117188 2.921875 C 37.285156 3.09375 37.414062 3.285156 37.503906 3.507812 C 37.597656 3.726562 37.640625 3.957031 37.640625 4.195312 L 37.640625 8.996094 C 37.640625 9.234375 37.597656 9.464844 37.503906 9.683594 C 37.414062 9.90625 37.285156 10.097656 37.117188 10.269531 C 36.949219 10.4375 36.753906 10.566406 36.535156 10.660156 C 36.316406 10.75 36.085938 10.796875 35.851562 10.796875 C 35.613281 10.796875 35.382812 10.75 35.164062 10.660156 C 34.945312 10.566406 34.75 10.4375 34.582031 10.269531 C 34.414062 10.097656 34.285156 9.90625 34.195312 9.683594 C 34.105469 9.464844 34.058594 9.234375 34.058594 8.996094 Z M 15.542969 4.195312 C 15.542969 3.957031 15.589844 3.726562 15.679688 3.507812 C 15.773438 3.285156 15.902344 3.09375 16.070312 2.921875 C 16.238281 2.753906 16.429688 2.625 16.652344 2.53125 C 16.871094 2.441406 17.097656 2.394531 17.335938 2.394531 C 17.574219 2.394531 17.800781 2.441406 18.023438 2.53125 C 18.242188 2.625 18.433594 2.753906 18.601562 2.921875 C 18.769531 3.09375 18.902344 3.285156 18.992188 3.507812 C 19.082031 3.726562 19.128906 3.957031 19.128906 4.195312 L 19.128906 8.996094 C 19.128906 9.234375 19.082031 9.464844 18.992188 9.683594 C 18.902344 9.90625 18.769531 10.097656 18.601562 10.269531 C 18.433594 10.4375 18.242188 10.566406 18.023438 10.660156 C 17.800781 10.75 17.574219 10.796875 17.335938 10.796875 C 17.097656 10.796875 16.871094 10.75 16.652344 10.660156 C 16.429688 10.566406 16.238281 10.4375 16.070312 10.269531 C 15.902344 10.097656 15.773438 9.90625 15.679688 9.683594 C 15.589844 9.464844 15.542969 9.234375 15.542969 8.996094 Z M 5.988281 19.195312 L 5.988281 10.796875 C 5.988281 10.316406 6.078125 9.859375 6.261719 9.417969 C 6.445312 8.976562 6.703125 8.585938 7.039062 8.25 C 7.375 7.914062 7.761719 7.652344 8.199219 7.46875 C 8.640625 7.285156 9.097656 7.195312 9.570312 7.195312 L 13.15625 7.195312 L 13.15625 8.996094 C 13.15625 9.269531 13.183594 9.542969 13.234375 9.816406 C 13.289062 10.085938 13.367188 10.347656 13.472656 10.601562 C 13.578125 10.855469 13.707031 11.097656 13.859375 11.328125 C 14.011719 11.558594 14.1875 11.769531 14.378906 11.964844 C 14.574219 12.160156 14.785156 12.335938 15.011719 12.488281 C 15.242188 12.640625 15.484375 12.769531 15.734375 12.875 C 15.988281 12.980469 16.25 13.058594 16.519531 13.113281 C 16.789062 13.167969 17.0625 13.195312 17.335938 13.195312 C 17.609375 13.195312 17.882812 13.167969 18.152344 13.113281 C 18.421875 13.058594 18.683594 12.980469 18.9375 12.875 C 19.191406 12.769531 19.429688 12.640625 19.660156 12.488281 C 19.886719 12.335938 20.097656 12.160156 20.292969 11.964844 C 20.484375 11.769531 20.660156 11.558594 20.8125 11.328125 C 20.964844 11.097656 21.09375 10.855469 21.199219 10.601562 C 21.304688 10.347656 21.382812 10.085938 21.4375 9.816406 C 21.488281 9.542969 21.515625 9.269531 21.515625 8.996094 L 21.515625 7.195312 L 31.667969 7.195312 L 31.667969 8.996094 C 31.667969 9.269531 31.695312 9.542969 31.75 9.816406 C 31.804688 10.085938 31.882812 10.347656 31.988281 10.601562 C 32.09375 10.855469 32.222656 11.097656 32.375 11.328125 C 32.527344 11.558594 32.699219 11.769531 32.894531 11.964844 C 33.089844 12.160156 33.300781 12.335938 33.527344 12.488281 C 33.753906 12.640625 33.996094 12.769531 34.25 12.875 C 34.503906 12.980469 34.765625 13.058594 35.035156 13.113281 C 35.304688 13.167969 35.574219 13.195312 35.851562 13.195312 C 36.125 13.195312 36.394531 13.167969 36.664062 13.113281 C 36.933594 13.058594 37.195312 12.980469 37.449219 12.875 C 37.703125 12.769531 37.945312 12.640625 38.171875 12.488281 C 38.402344 12.335938 38.613281 12.160156 38.804688 11.964844 C 39 11.769531 39.171875 11.558594 39.324219 11.328125 C 39.476562 11.097656 39.605469 10.855469 39.710938 10.601562 C 39.816406 10.347656 39.898438 10.085938 39.949219 9.816406 C 40.003906 9.542969 40.03125 9.269531 40.03125 8.996094 L 40.03125 7.195312 L 50.183594 7.195312 L 50.183594 8.996094 C 50.183594 9.269531 50.210938 9.542969 50.261719 9.816406 C 50.316406 10.085938 50.398438 10.347656 50.5 10.601562 C 50.605469 10.855469 50.734375 11.097656 50.886719 11.328125 C 51.039062 11.558594 51.214844 11.769531 51.40625 11.964844 C 51.601562 12.160156 51.8125 12.335938 52.042969 12.488281 C 52.269531 12.640625 52.511719 12.769531 52.765625 12.875 C 53.019531 12.980469 53.277344 13.058594 53.546875 13.113281 C 53.816406 13.167969 54.089844 13.195312 54.363281 13.195312 C 54.636719 13.195312 54.910156 13.167969 55.179688 13.113281 C 55.449219 13.058594 55.710938 12.980469 55.964844 12.875 C 56.21875 12.769531 56.457031 12.640625 56.6875 12.488281 C 56.914062 12.335938 57.125 12.160156 57.320312 11.964844 C 57.515625 11.769531 57.6875 11.558594 57.839844 11.328125 C 57.992188 11.097656 58.121094 10.855469 58.226562 10.601562 C 58.332031 10.347656 58.410156 10.085938 58.464844 9.816406 C 58.519531 9.542969 58.542969 9.269531 58.542969 8.996094 L 58.542969 7.195312 L 62.128906 7.195312 C 62.601562 7.195312 63.058594 7.285156 63.5 7.46875 C 63.9375 7.652344 64.324219 7.914062 64.660156 8.25 C 64.996094 8.585938 65.257812 8.976562 65.4375 9.417969 C 65.621094 9.859375 65.710938 10.316406 65.710938 10.796875 L 65.710938 19.195312 Z M 54.960938 57.589844 C 54.960938 57.113281 55.050781 56.652344 55.234375 56.210938 C 55.414062 55.773438 55.675781 55.382812 56.011719 55.042969 C 56.347656 54.707031 56.734375 54.445312 57.171875 54.265625 C 57.613281 54.082031 58.070312 53.992188 58.542969 53.992188 L 64.023438 53.992188 L 54.960938 63.097656 Z M 62.128906 69.589844 L 9.570312 69.589844 C 9.089844 69.585938 8.625 69.492188 8.179688 69.300781 C 7.730469 69.113281 7.339844 68.84375 7.003906 68.496094 C 6.667969 68.144531 6.410156 67.746094 6.234375 67.292969 C 6.058594 66.839844 5.976562 66.371094 5.988281 65.882812 C 7.042969 66.695312 8.234375 67.109375 9.5625 67.117188 L 51.773438 67.1875 C 52.566406 67.1875 53.332031 67.035156 54.066406 66.730469 C 54.804688 66.425781 55.453125 65.992188 56.015625 65.429688 L 65.710938 55.691406 L 65.710938 65.988281 C 65.710938 66.464844 65.621094 66.925781 65.4375 67.367188 C 65.257812 67.808594 64.996094 68.195312 64.660156 68.535156 C 64.324219 68.871094 63.9375 69.132812 63.5 69.316406 C 63.058594 69.496094 62.601562 69.589844 62.128906 69.589844 Z M 62.128906 69.589844 " fill-opacity="1" fill-rule="nonzero"/></g><g clip-path="url(#e7c9759160)"><path fill="#6a994e" d="M 5.988281 52.789062 C 5.988281 52.949219 5.957031 53.101562 5.898438 53.25 C 5.835938 53.398438 5.75 53.527344 5.640625 53.640625 C 5.527344 53.75 5.398438 53.839844 5.25 53.898438 C 5.105469 53.960938 4.953125 53.992188 4.792969 53.992188 C 4.636719 53.992188 4.484375 53.960938 4.335938 53.898438 C 4.191406 53.839844 4.0625 53.75 3.949219 53.640625 C 3.835938 53.527344 3.75 53.398438 3.691406 53.25 C 3.628906 53.101562 3.601562 52.949219 3.601562 52.789062 C 3.601562 52.632812 3.628906 52.476562 3.691406 52.332031 C 3.75 52.183594 3.835938 52.054688 3.949219 51.941406 C 4.0625 51.828125 4.191406 51.742188 4.335938 51.683594 C 4.484375 51.621094 4.636719 51.589844 4.792969 51.589844 C 4.953125 51.589844 5.105469 51.621094 5.25 51.683594 C 5.398438 51.742188 5.527344 51.828125 5.640625 51.941406 C 5.75 52.054688 5.835938 52.183594 5.898438 52.332031 C 5.957031 52.476562 5.988281 52.632812 5.988281 52.789062 Z M 5.988281 52.789062 " fill-opacity="1" fill-rule="nonzero"/></g></svg>