<svg xmlns="http://www.w3.org/2000/svg" xmlns:xlink="http://www.w3.org/1999/xlink" width="96" zoomAndPan="magnify" viewBox="0 0 72 72" height="96" preserveAspectRatio="xMidYMid meet" version="1.0"><path fill="#6a994e" d="M 29.578125 0 C 13.246094 0 0.00390625 13.273438 0.00390625 29.644531 C 0.00390625 46.019531 13.246094 59.292969 29.578125 59.292969 C 33.09375 59.292969 36.46875 58.675781 39.59375 57.546875 C 39.203125 56.929688 39.019531 56.246094 38.917969 55.503906 C 38.886719 55.285156 38.859375 54.898438 38.804688 54.652344 C 38.613281 54.476562 38.292969 54.261719 38.117188 54.121094 C 37.402344 53.5625 36.816406 52.9375 36.5 52.066406 C 36.183594 51.191406 36.242188 50.339844 36.433594 49.453125 C 36.480469 49.242188 36.589844 48.859375 36.617188 48.613281 C 36.519531 48.421875 36.335938 48.164062 36.238281 48.011719 C 35.839844 47.390625 35.515625 46.777344 35.382812 46.039062 C 35.308594 45.609375 35.3125 45.199219 35.378906 44.796875 L 13.585938 44.796875 C 13.585938 35.941406 20.746094 28.765625 29.578125 28.765625 C 33.585938 28.765625 37.246094 30.242188 40.050781 32.679688 C 40.617188 32.089844 41.316406 31.753906 42.097656 31.5 C 42.308594 31.433594 42.683594 31.339844 42.917969 31.238281 C 43.054688 31.023438 43.210938 30.667969 43.316406 30.472656 C 43.742188 29.667969 44.25 28.980469 45.050781 28.515625 C 45.851562 28.050781 46.699219 27.960938 47.605469 27.992188 C 47.824219 28 48.207031 28.039062 48.460938 28.027344 C 48.667969 27.871094 48.933594 27.589844 49.101562 27.441406 C 49.777344 26.835938 50.488281 26.363281 51.398438 26.203125 C 52.308594 26.042969 53.140625 26.238281 53.980469 26.578125 C 54.191406 26.660156 54.535156 26.832031 54.78125 26.910156 C 55.023438 26.835938 55.371094 26.664062 55.574219 26.582031 C 56.414062 26.242188 57.242188 26.039062 58.152344 26.199219 C 58.449219 26.253906 58.722656 26.335938 58.980469 26.449219 C 57.390625 11.578125 44.835938 0 29.578125 0 Z M 51.085938 64.535156 L 47.621094 72 L 44.632812 66.847656 L 38.78125 67.875 L 42.679688 59.476562 C 42.769531 59.507812 42.851562 59.535156 42.921875 59.566406 C 43.058594 59.78125 43.214844 60.132812 43.320312 60.328125 C 43.746094 61.128906 44.25 61.820312 45.050781 62.28125 C 45.855469 62.746094 46.699219 62.839844 47.605469 62.8125 C 47.824219 62.804688 48.210938 62.761719 48.464844 62.777344 C 48.667969 62.929688 48.933594 63.210938 49.101562 63.359375 C 49.695312 63.898438 50.320312 64.328125 51.085938 64.535156 Z M 67.726562 59.210938 L 70.773438 66.300781 L 64.949219 65.105469 L 61.816406 70.167969 L 59.261719 64.21875 C 59.6875 63.996094 60.074219 63.699219 60.453125 63.363281 C 60.621094 63.210938 60.886719 62.933594 61.089844 62.777344 C 61.34375 62.761719 61.726562 62.804688 61.945312 62.8125 C 62.851562 62.84375 63.699219 62.75 64.5 62.285156 C 65.304688 61.824219 65.8125 61.132812 66.238281 60.332031 C 66.339844 60.136719 66.496094 59.78125 66.636719 59.5625 C 66.871094 59.464844 67.246094 59.371094 67.453125 59.300781 C 67.546875 59.273438 67.636719 59.242188 67.726562 59.210938 Z M 71.8125 45.179688 C 71.996094 46.238281 70.75 47.15625 70.566406 48.191406 C 70.394531 49.167969 71.121094 50.371094 70.800781 51.25 C 70.480469 52.132812 69.148438 52.589844 68.660156 53.4375 C 68.167969 54.285156 68.441406 55.667969 67.839844 56.390625 C 67.238281 57.105469 65.832031 57.082031 65.082031 57.714844 C 64.335938 58.339844 64.121094 59.734375 63.304688 60.207031 C 62.503906 60.671875 61.183594 60.167969 60.261719 60.503906 C 59.355469 60.832031 58.675781 62.070312 57.738281 62.234375 C 56.796875 62.402344 55.738281 61.472656 54.777344 61.472656 C 53.792969 61.472656 52.726562 62.402344 51.816406 62.238281 C 50.886719 62.074219 50.207031 60.839844 49.292969 60.503906 C 48.371094 60.167969 47.058594 60.671875 46.25 60.203125 C 45.4375 59.734375 45.222656 58.339844 44.472656 57.710938 C 43.722656 57.082031 42.316406 57.113281 41.710938 56.390625 C 41.113281 55.675781 41.382812 54.292969 40.890625 53.4375 C 40.40625 52.597656 39.074219 52.140625 38.75 51.25 C 38.433594 50.375 39.164062 49.179688 38.988281 48.191406 C 38.832031 47.28125 37.890625 46.46875 37.742188 45.621094 C 37.554688 44.566406 38.804688 43.644531 38.984375 42.609375 C 39.15625 41.636719 38.429688 40.433594 38.75 39.554688 C 39.074219 38.667969 40.40625 38.214844 40.894531 37.367188 C 41.382812 36.519531 41.113281 35.132812 41.714844 34.414062 C 42.3125 33.695312 43.722656 33.722656 44.472656 33.089844 C 45.214844 32.460938 45.429688 31.066406 46.25 30.59375 C 47.050781 30.128906 48.371094 30.632812 49.292969 30.300781 C 50.199219 29.96875 50.875 28.734375 51.816406 28.566406 C 52.753906 28.402344 53.8125 29.332031 54.777344 29.328125 C 55.757812 29.328125 56.828125 28.402344 57.738281 28.5625 C 58.667969 28.726562 59.347656 29.964844 60.257812 30.296875 C 61.179688 30.636719 62.496094 30.128906 63.304688 30.597656 C 64.113281 31.066406 64.332031 32.460938 65.082031 33.09375 C 65.828125 33.71875 67.238281 33.691406 67.839844 34.410156 C 68.441406 35.128906 68.167969 36.507812 68.664062 37.363281 C 69.148438 38.207031 70.480469 38.660156 70.800781 39.554688 C 71.117188 40.425781 70.390625 41.625 70.5625 42.609375 C 70.722656 43.519531 71.660156 44.332031 71.8125 45.179688 Z M 54.777344 32.550781 C 58.316406 32.550781 61.519531 33.988281 63.839844 36.316406 C 66.160156 38.640625 67.59375 41.851562 67.59375 45.402344 C 67.59375 48.949219 66.160156 52.164062 63.839844 54.488281 C 61.519531 56.8125 58.316406 58.25 54.777344 58.25 C 51.238281 58.25 48.03125 56.8125 45.710938 54.488281 C 43.394531 52.164062 41.957031 48.949219 41.957031 45.402344 C 41.957031 41.851562 43.390625 38.640625 45.710938 36.316406 C 48.03125 33.988281 51.238281 32.550781 54.777344 32.550781 Z M 62.148438 38.011719 C 64.035156 39.902344 65.199219 42.515625 65.199219 45.402344 C 65.199219 48.285156 64.035156 50.898438 62.148438 52.789062 C 60.261719 54.683594 57.65625 55.851562 54.777344 55.851562 C 51.898438 55.851562 49.292969 54.683594 47.40625 52.789062 C 45.519531 50.898438 44.351562 48.285156 44.351562 45.402344 C 44.351562 42.515625 45.519531 39.902344 47.40625 38.011719 C 49.292969 36.121094 51.898438 34.953125 54.777344 34.953125 C 57.65625 34.953125 60.261719 36.121094 62.148438 38.011719 Z M 54.777344 37.683594 L 56.746094 42.519531 L 61.945312 42.902344 L 57.964844 46.277344 L 59.207031 51.351562 L 54.777344 48.601562 L 50.347656 51.351562 L 51.585938 46.277344 L 47.609375 42.902344 L 52.804688 42.519531 Z M 29.578125 11.054688 C 34.046875 11.054688 37.664062 14.683594 37.664062 19.160156 C 37.664062 23.636719 34.046875 27.265625 29.578125 27.265625 C 25.113281 27.265625 21.492188 23.636719 21.492188 19.160156 C 21.492188 14.683594 25.113281 11.054688 29.578125 11.054688 Z M 29.578125 11.054688 " fill-opacity="1" fill-rule="evenodd"/></svg>