<svg xmlns="http://www.w3.org/2000/svg" xmlns:xlink="http://www.w3.org/1999/xlink" width="96" zoomAndPan="magnify" viewBox="0 0 72 72" height="96" preserveAspectRatio="xMidYMid meet" version="1.0"><defs><clipPath id="1f66d1b1a8"><path d="M 0 5.578125 L 72 5.578125 L 72 64.828125 L 0 64.828125 Z M 0 5.578125 " clip-rule="nonzero"/></clipPath></defs><g clip-path="url(#1f66d1b1a8)"><path fill="#6a994e" d="M 32.210938 14.027344 L 32.210938 11.269531 C 32.210938 8.179688 34.652344 5.664062 37.683594 5.664062 L 66.515625 5.664062 C 69.546875 5.664062 71.988281 8.179688 71.988281 11.269531 L 71.988281 25.859375 C 71.988281 28.945312 69.546875 31.464844 66.515625 31.464844 L 50.347656 31.464844 C 51.066406 33.738281 51.488281 36.152344 51.566406 38.652344 C 51.574219 38.890625 51.386719 39.089844 51.148438 39.097656 C 51.144531 39.097656 51.140625 39.097656 51.136719 39.097656 L 50.03125 39.097656 C 49.878906 39.097656 49.734375 39.015625 49.660156 38.882812 C 48.234375 36.367188 45.601562 34.78125 42.699219 34.78125 C 39.796875 34.78125 37.167969 36.367188 35.738281 38.882812 C 35.664062 39.015625 35.523438 39.097656 35.371094 39.097656 L 33.113281 39.097656 C 32.960938 39.097656 32.820312 39.015625 32.746094 38.882812 C 31.828125 37.265625 30.414062 36.035156 28.753906 35.359375 L 28.753906 53.597656 C 28.753906 56.917969 31.292969 59.578125 34.382812 59.578125 C 37.472656 59.578125 40.011719 56.917969 40.011719 53.597656 L 40.011719 53.566406 C 40.011719 52.152344 41.160156 51.003906 42.570312 51.003906 C 43.984375 51.003906 45.132812 52.152344 45.132812 53.566406 L 45.132812 53.597656 C 45.132812 59.746094 40.339844 64.761719 34.382812 64.761719 C 28.425781 64.761719 23.632812 59.746094 23.632812 53.597656 L 23.632812 35.082031 C 21.617188 35.652344 19.886719 37.007812 18.824219 38.882812 C 18.746094 39.015625 18.605469 39.097656 18.453125 39.097656 L 16.199219 39.097656 C 16.046875 39.097656 15.902344 39.015625 15.828125 38.882812 C 14.402344 36.367188 11.769531 34.78125 8.867188 34.78125 C 5.964844 34.78125 3.335938 36.367188 1.90625 38.882812 C 1.832031 39.019531 1.691406 39.101562 1.539062 39.109375 L 0.460938 39.144531 C 0.214844 39.152344 0.0078125 38.960938 0 38.710938 C 0 38.703125 0 38.691406 0 38.683594 C 0.417969 25.238281 10.691406 14.382812 23.632812 13.292969 L 23.632812 11.023438 C 23.632812 9.4375 24.917969 8.15625 26.5 8.15625 C 28.082031 8.15625 29.367188 9.4375 29.367188 11.023438 L 29.367188 13.453125 C 30.332031 13.589844 31.28125 13.785156 32.210938 14.027344 Z M 70.832031 13.730469 L 70.832031 11.269531 C 70.832031 8.8125 68.902344 6.820312 66.515625 6.820312 L 37.683594 6.820312 C 35.296875 6.820312 33.367188 8.8125 33.367188 11.269531 L 33.367188 13.730469 Z M 70.832031 15.421875 L 33.367188 15.421875 L 33.367188 25.859375 C 33.367188 28.316406 35.296875 30.308594 37.683594 30.308594 L 66.515625 30.308594 C 68.902344 30.308594 70.832031 28.316406 70.832031 25.859375 Z M 58.574219 18.917969 C 59.574219 18.917969 60.484375 19.316406 61.164062 19.96875 C 61.84375 19.316406 62.753906 18.917969 63.753906 18.917969 C 65.851562 18.917969 67.550781 20.671875 67.550781 22.835938 C 67.550781 24.996094 65.851562 26.75 63.753906 26.75 C 62.753906 26.75 61.84375 26.351562 61.164062 25.699219 C 60.484375 26.351562 59.574219 26.75 58.574219 26.75 C 56.476562 26.75 54.777344 24.996094 54.777344 22.835938 C 54.777344 20.671875 56.476562 18.917969 58.574219 18.917969 Z M 58.574219 18.917969 " fill-opacity="1" fill-rule="nonzero"/></g></svg>